<?xml version="1.0" encoding="utf-8"?>
<!-- Generator: Adobe Illustrator 23.0.1, SVG Export Plug-In . SVG Version: 6.00 Build 0)  -->
<svg version="1.2" baseProfile="tiny" id="Layer_1" xmlns="http://www.w3.org/2000/svg" xmlns:xlink="http://www.w3.org/1999/xlink"
	 x="0px" y="0px" viewBox="0 0 122.1 122.1" xml:space="preserve">
<g id="background" display="none">
	<rect x="-36.6" y="-36.7" display="inline" fill="#F2F2F2" width="207.6" height="207.6"/>
</g>
<g id="help" display="none">
	<g id="scale" display="inline">
		<rect x="12.2" y="0" fill="none" stroke="#EC1C24" stroke-width="0.6482" width="12.4" height="12.2"/>
		<g>
			<path fill="#BE1E2D" d="M14.5,7.1c0-0.3,0-0.5,0.2-0.9C14.8,6,14.8,6,15,5.8c0.2-0.2,0.3-0.2,0.5-0.2c0.2,0,0.3,0,0.3,0.2
				C16,5.8,16,6,16.2,6c0.2,0,0.2,0.2,0.2,0.3c0,0.2,0,0.3,0,0.7c0,0.3,0,0.5-0.2,0.9c0,0.2-0.2,0.3-0.3,0.5
				c-0.2,0.2-0.3,0.2-0.5,0.2c-0.3,0-0.5,0-0.7-0.2C14.5,8,14.5,7.7,14.5,7.1z M14.8,7.1c0,0.5,0,0.7,0.2,0.9
				c0.2,0.2,0.2,0.2,0.3,0.2s0.3,0,0.3-0.2c0.2-0.2,0.2-0.5,0.2-0.9c0-0.5,0-0.7-0.2-0.9c0-0.2-0.2-0.2-0.3-0.2S15,6.1,15,6.3
				C14.8,6.5,14.8,6.6,14.8,7.1z"/>
			<path fill="#BE1E2D" d="M16.8,8.5V8.2h0.3v0.3H16.8z"/>
			<path fill="#BE1E2D" d="M18.9,8.5h-0.3V6.3c0,0-0.2,0.2-0.3,0.2c0,0.2-0.2,0.3-0.3,0.3V6.5c0.2-0.2,0.3-0.2,0.5-0.3
				s0.2-0.2,0.3-0.3h0.2V8.5z"/>
			<path fill="#BE1E2D" d="M21.1,6.1V5.8h0.3v0.3C21.4,6.1,21.1,6.1,21.1,6.1z M21.1,8.5v-2h0.3v2H21.1z"/>
			<path fill="#BE1E2D" d="M21.9,8.5v-2h0.3v0.3c0-0.2,0.3-0.3,0.5-0.3s0.2,0,0.3,0c0.2,0,0.2,0.2,0.2,0.2l0.2,0.2c0,0,0,0.2,0,0.3
				v1.4h-0.3V7.3c0-0.2,0-0.2,0-0.3c0,0,0-0.2-0.2-0.2h-0.2c-0.2,0-0.3,0-0.3,0.2c0,0.2-0.2,0.2-0.2,0.5v1H21.9z"/>
		</g>
	</g>
	<line display="inline" fill="none" stroke="#000000" stroke-width="0.7" x1="110.2" y1="85.7" x2="143.4" y2="85.7"/>
	<line display="inline" fill="none" stroke="#000000" stroke-width="0.2" x1="110.2" y1="73.5" x2="143.4" y2="73.5"/>
</g>
<g id="schematic" xmlns:xml="http://www.w3.org/XML/1998/namespace">
	
		<rect id="part_symbol" x="24.3" y="12.2" fill="#FFFFFF" stroke="#000000" stroke-width="0.9002" stroke-linecap="round" width="73.5" height="98"/>
	<g id="pins">
		<g>
			
				<line fill="none" stroke="#555555" stroke-width="0.7" stroke-linecap="round" stroke-linejoin="round" x1="97.8" y1="85.7" x2="110" y2="85.7"/>
		</g>
		<g>
			
				<line fill="none" stroke="#555555" stroke-width="0.7" stroke-linecap="round" stroke-linejoin="round" x1="97.8" y1="73.5" x2="110" y2="73.5"/>
		</g>
		<g>
			
				<line fill="none" stroke="#555555" stroke-width="0.7" stroke-linecap="round" stroke-linejoin="round" x1="61" y1="110.2" x2="61" y2="122.4"/>
		</g>
		
			<line display="none" fill="none" stroke="#555555" stroke-width="0.7" stroke-linecap="round" stroke-linejoin="round" x1="12.1" y1="49" x2="24.3" y2="49"/>
		
			<line display="none" fill="none" stroke="#555555" stroke-width="0.7" stroke-linecap="round" stroke-linejoin="round" x1="12.1" y1="36.7" x2="24.3" y2="36.7"/>
		
			<line display="none" fill="none" stroke="#555555" stroke-width="0.7" stroke-linecap="round" stroke-linejoin="round" x1="12.1" y1="73.5" x2="24.3" y2="73.5"/>
		
			<line display="none" fill="none" stroke="#555555" stroke-width="0.7" stroke-linecap="round" stroke-linejoin="round" x1="12.1" y1="61.2" x2="24.3" y2="61.2"/>
		<g>
			
				<line fill="none" stroke="#555555" stroke-width="0.7" stroke-linecap="round" stroke-linejoin="round" x1="61" y1="12.2" x2="61" y2="0"/>
		</g>
		<g display="none">
			
				<line display="inline" fill="none" stroke="#555555" stroke-width="0.7" stroke-linecap="round" stroke-linejoin="round" x1="97.8" y1="49" x2="110" y2="49"/>
		</g>
		<g display="none">
			
				<line display="inline" fill="none" stroke="#555555" stroke-width="0.7" stroke-linecap="round" stroke-linejoin="round" x1="97.8" y1="36.7" x2="110" y2="36.7"/>
		</g>
	</g>
	<g id="pin_numbers">
		<g display="none">
			<path display="inline" fill="#555555" d="M104.1,32c0.2,0,0.3,0,0.5,0c0.2,0,0.3,0.2,0.3,0.2c0.2,0.2,0.2,0.2,0.2,0.3
				s0.2,0.3,0.2,0.5s0,0.3,0,0.5c0,0.2-0.2,0.3-0.2,0.3s-0.2,0.2-0.3,0.2c-0.2,0-0.3,0-0.5,0h-0.2h-0.2h-0.2c0,0-0.2,0-0.2-0.2v-0.5
				c0,0,0.2,0,0.2,0.2h0.2h0.2h0.2c0.2,0,0.2,0,0.3,0c0.2,0,0.2,0,0.3-0.2l0.2-0.2c0-0.2,0-0.2,0-0.3c0-0.2,0-0.3-0.2-0.5
				c-0.2-0.2-0.3-0.2-0.7-0.2h-0.2h-0.2h-0.2h-0.2l-0.5,0.2l0.2-1.7h1.7V31h-1.4l-0.2,1h0.2C103.9,32,103.9,32,104.1,32z"/>
		</g>
		<g display="none">
			<path display="inline" fill="#555555" d="M102.7,45.1c0-0.2,0-0.3,0-0.5c0-0.2,0-0.3,0.2-0.5c0-0.2,0.2-0.3,0.2-0.5
				s0.2-0.3,0.3-0.3c0.2-0.2,0.3-0.2,0.3-0.2c0.2,0,0.3,0,0.5,0c0,0,0,0,0.2,0c0.2,0,0,0,0.2,0c0,0,0,0,0.2,0c0,0,0,0,0.2,0v0.3
				h-0.2h-0.2c-0.2,0-0.3,0-0.3,0c-0.2,0-0.2,0-0.3,0.2l-0.2,0.2c0,0.2-0.2,0.2-0.2,0.3c0,0.2,0,0.2,0,0.3s0,0.2,0,0.3l0,0
				c0,0,0-0.2,0.2-0.2l0.2-0.2c0,0,0.2,0,0.2-0.2c0,0,0.2,0,0.3,0c0.2,0,0.3,0,0.5,0s0.2,0.2,0.3,0.2c0.2,0.2,0.2,0.2,0.2,0.3
				c0,0.2,0,0.3,0,0.5s0,0.3,0,0.5c0,0.2-0.2,0.3-0.2,0.3c-0.2,0.2-0.2,0.2-0.3,0.2s-0.3,0-0.5,0c-0.2,0-0.3,0-0.5-0.2
				c-0.2,0-0.3-0.2-0.3-0.3c0-0.2-0.2-0.3-0.2-0.5C103.4,45.1,102.7,45.4,102.7,45.1z M103.9,46.4c0.2,0,0.2,0,0.3,0l0.2-0.2
				c0,0,0.2-0.2,0.2-0.3s0-0.2,0-0.3c0-0.2,0-0.2,0-0.3s0-0.2-0.2-0.2l-0.2-0.2c0,0-0.2,0-0.3,0c-0.2,0-0.2,0-0.3,0
				s-0.2,0.2-0.2,0.2l-0.2,0.2v0.2c0,0.2,0,0.2,0,0.3s0,0.2,0.2,0.3c0,0.2,0.2,0.2,0.2,0.2C103.7,46.3,103.7,46.4,103.9,46.4z"/>
		</g>
		<g display="none">
			<path display="inline" fill="#555555" d="M17.5,34.2l1.4-3.2H17v-0.3h2.4V31L18,34.2H17.5z"/>
		</g>
		<g>
			<path fill="#555555" d="M104.9,83.5h-2.2v-0.3l0.9-1c0.2-0.2,0.2-0.3,0.3-0.3c0.2-0.2,0.2-0.2,0.2-0.3c0-0.2,0.2-0.2,0.2-0.3
				c0-0.2,0-0.2,0-0.3s0-0.2,0-0.3c0,0,0-0.2-0.2-0.2l-0.2-0.2h-0.2c-0.2,0-0.3,0-0.5,0.2c-0.2,0-0.2,0.2-0.3,0.2l-0.2-0.3l0.2-0.2
				l0.2-0.2c0.2,0,0.2,0,0.3-0.2c0.2,0,0.2,0,0.3,0c0.2,0,0.3,0,0.5,0s0.2,0.2,0.3,0.2s0.2,0.2,0.2,0.3c0,0.2,0,0.3,0,0.3
				c0,0.2,0,0.3,0,0.3c0,0.2-0.2,0.2-0.2,0.3c0,0.2-0.2,0.2-0.3,0.3c-0.2,0.2-0.2,0.3-0.3,0.3l-0.7,0.7l0,0h1.7V83.5z"/>
		</g>
		<g display="none">
			<path display="inline" fill="#555555" d="M66.2,116.7h-0.5v0.9h-0.5v-0.9h-1.7v-0.3l1.7-2.4h0.5v2.4h0.5V116.7z M65.1,116.3v-0.9
				c0-0.2,0-0.2,0-0.3c0-0.2,0-0.2,0-0.3s0-0.2,0-0.3v-0.2l0,0c0,0,0,0,0,0.2c0,0,0,0,0,0.2c0,0,0,0,0,0.2c0,0,0,0,0,0.2l-1,1.5h1
				V116.3z"/>
		</g>
		<g display="none">
			<path display="inline" fill="#555555" d="M19.4,44.2c0,0.2,0,0.3,0,0.5c0,0.2,0,0.3-0.2,0.5c0,0.2-0.2,0.3-0.2,0.5
				c0,0-0.2,0.2-0.3,0.2s-0.3,0.2-0.3,0.2c-0.2,0-0.3,0.2-0.5,0.2c0,0,0,0-0.2,0c-0.2,0,0,0-0.2,0c0,0,0,0-0.2,0s0,0-0.2,0v-0.3h0.2
				h0.2c0.2,0,0.3,0,0.5-0.2s0.3-0.2,0.3-0.3c0-0.2,0.2-0.3,0.2-0.5c0-0.2,0-0.3,0-0.5l0,0c0,0,0,0.2-0.2,0.2s-0.2,0.2-0.2,0.2
				s-0.2,0-0.2,0.2c0,0.2-0.2,0-0.3,0s-0.3,0-0.5,0s-0.2-0.2-0.3-0.2c0.3-0.2,0.3-0.3,0.3-0.5c0-0.2,0-0.3,0-0.5s0-0.3,0-0.5
				s0.2-0.3,0.2-0.3c0.2-0.2,0.2-0.2,0.3-0.2s0.3,0,0.5,0s0.3,0,0.5,0.2S19,43,19,43.2c0.2,0.2,0.2,0.3,0.2,0.5
				C19.4,43.7,19.4,43.9,19.4,44.2z M18.2,42.9c-0.2,0-0.2,0-0.3,0L17.7,43c0,0-0.2,0.2-0.2,0.3c0,0.2,0,0.2,0,0.3s0,0.2,0,0.3
				c0,0.2,0,0.2,0.2,0.2l0.2,0.2c0,0,0.2,0,0.3,0c0.2,0,0.2,0,0.3,0s0.2-0.2,0.2-0.2c0,0,0.2,0,0.2-0.2v-0.2c0-0.2,0-0.2,0-0.3
				c0-0.2,0-0.2-0.2-0.3c0-0.2-0.2-0.2-0.2-0.2S18.4,42.9,18.2,42.9z"/>
		</g>
		<g display="none">
			<path display="inline" fill="#555555" d="M17.2,59h-0.5v-2.2v-0.2v-0.2v-0.2v-0.2l0,0l0,0l0,0c0,0,0,0-0.2,0l-0.3,0.3l-0.3-0.3
				l1-0.7h0.3V59z"/>
			<path display="inline" fill="#555555" d="M20.7,57.1c0,0.3,0,0.5,0,0.9c-0.2,0.2-0.2,0.3-0.2,0.5c-0.2,0.2-0.2,0.3-0.3,0.3
				S19.9,59,19.7,59c-0.2,0-0.3,0-0.5-0.2c-0.3,0-0.3-0.2-0.5-0.3c-0.2-0.2-0.2-0.3-0.2-0.5c0-0.2,0-0.5,0-0.9c0-0.3,0-0.5,0-0.9
				c0-0.2,0.2-0.5,0.2-0.5c0.2-0.2,0.2-0.3,0.3-0.3c0.2,0,0.3-0.2,0.5-0.2s0.3,0,0.5,0.2c0.2,0,0.3,0.2,0.3,0.3
				c0.2,0.2,0.2,0.3,0.3,0.5C20.9,56.5,20.7,56.8,20.7,57.1z M18.9,57.1c0,0.2,0,0.5,0,0.7s0,0.3,0.2,0.5c0,0.2,0.2,0.2,0.2,0.3
				c0.2,0,0.2,0.2,0.3,0.2s0.2,0,0.3-0.2c0.2-0.2,0.2-0.2,0.2-0.3c0-0.2,0.2-0.3,0.2-0.5c0-0.2,0-0.3,0-0.7c0-0.2,0-0.5,0-0.7
				c0-0.2,0-0.3-0.2-0.5c0-0.2-0.2-0.2-0.2-0.3s-0.2-0.2-0.3-0.2s-0.2,0-0.3,0.2c-0.2,0-0.2,0.2-0.2,0.3c0,0.2-0.2,0.3-0.2,0.5
				C18.9,56.6,18.9,57,18.9,57.1z"/>
		</g>
		<g>
			<path fill="#555555" d="M104.8,68.7c0,0.2,0,0.2,0,0.3s-0.2,0.2-0.2,0.3l-0.2,0.2c-0.2,0-0.2,0-0.3,0.2l0,0
				c0.3,0,0.5,0.2,0.7,0.3s0.2,0.3,0.2,0.5s0,0.3,0,0.5c0,0.2-0.2,0.2-0.2,0.3s-0.2,0.2-0.3,0.2s-0.3,0-0.5,0s-0.3,0-0.5,0
				c-0.2,0-0.3,0-0.5-0.2v-0.5c0.2,0,0.3,0.2,0.5,0.2c0.2,0,0.3,0,0.5,0s0.3,0,0.3,0c0.2,0,0.2,0,0.3-0.2l0.2-0.2c0-0.2,0-0.2,0-0.3
				c0-0.2,0-0.2,0-0.3l-0.2-0.2c0,0-0.2-0.2-0.3-0.2c-0.2,0-0.2,0-0.3,0h-0.3v-0.3h0.3c0.2,0,0.2,0,0.3,0s0.2,0,0.3-0.2l0.2-0.2
				C104.8,69,104.8,68.9,104.8,68.7c0-0.2,0-0.2,0-0.2s0-0.2-0.2-0.2c0,0-0.2,0-0.2-0.2c0-0.2-0.2,0-0.2,0c-0.2,0-0.3,0-0.5,0
				c-0.2,0-0.3,0.2-0.3,0.2l-0.2-0.3l0.2-0.2c0,0,0.2,0,0.2-0.2c0.2,0,0.2,0,0.3,0c0.2,0,0.2,0,0.3,0c0.2,0,0.3,0,0.5,0
				c0.2,0,0.2,0.2,0.3,0.2c0.2,0,0.2,0.2,0.2,0.3C104.8,68.5,104.8,68.7,104.8,68.7z"/>
		</g>
		<g>
			<path fill="#555555" d="M65.1,118.9h-0.5v-2.2v-0.2v-0.2v-0.2V116l0,0l0,0l0,0c0,0,0,0-0.2,0l-0.3,0.3l-0.2-0.3l1-0.7h0.3v3.6
				H65.1z"/>
		</g>
		<g id="_x30_">
			<path fill="#555555" d="M66,4.8c0,0.3,0,0.5,0,0.9c0,0.2-0.2,0.5-0.2,0.5c-0.2,0.2-0.2,0.3-0.3,0.3c-0.2,0-0.3,0.2-0.5,0.2
				s-0.3,0-0.5-0.2c-0.2-0.2-0.3-0.2-0.3-0.3c-0.2-0.2-0.2-0.3-0.2-0.5c0-0.2,0-0.5,0-0.9c0-0.3,0-0.5,0-0.9c0-0.2,0.2-0.5,0.2-0.5
				c0.2-0.2,0.2-0.3,0.3-0.3c0.2,0,0.3-0.2,0.5-0.2c0.2,0,0.3,0,0.5,0.2c0.2,0,0.3,0.2,0.3,0.3C66,3.6,66,3.7,66,3.9
				C66,4.1,66,4.4,66,4.8z M64.1,4.8c0,0.2,0,0.5,0,0.7s0,0.3,0.2,0.5c0,0.2,0.2,0.2,0.2,0.3c0.2,0,0.2,0.2,0.3,0.2s0.2,0,0.3-0.2
				c0.2-0.2,0.2-0.2,0.2-0.3c0-0.2,0.2-0.3,0.2-0.5s0-0.3,0-0.7c0-0.2,0-0.5,0-0.7c0-0.2,0-0.3-0.2-0.5c0-0.2-0.2-0.2-0.2-0.3
				c-0.2,0-0.2-0.2-0.3-0.2s-0.2,0-0.3,0.2c-0.2,0-0.2,0.2-0.2,0.3s-0.2,0.3-0.2,0.5C64.1,4.3,64.1,4.6,64.1,4.8z"/>
		</g>
	</g>
	<g id="pin_labels">
		<g>
			<path fill="#555555" d="M86.6,72.6c0,0.3,0,0.9-0.2,1.2c-0.2,0.3-0.2,0.7-0.5,0.9c-0.2,0.2-0.5,0.5-0.7,0.5
				c-0.3,0.2-0.7,0.2-1,0.2c-0.3,0-0.7,0-1-0.2c-0.3-0.2-0.5-0.3-0.7-0.5c-0.2-0.2-0.3-0.5-0.5-0.9c-0.2-0.3-0.2-0.7-0.2-1.2
				c0-0.5,0-0.9,0.2-1.2c0.2-0.3,0.2-0.7,0.5-0.9c0.2-0.2,0.5-0.5,0.7-0.5s0.7-0.2,1-0.2s0.7,0,1,0.2c0.3,0.2,0.5,0.3,0.7,0.5
				s0.3,0.5,0.5,0.9C86.4,71.8,86.6,72.3,86.6,72.6z M82.5,72.6c0,0.3,0,0.7,0.2,0.9c0,0.3,0.2,0.5,0.3,0.7s0.3,0.3,0.5,0.5
				s0.5,0.2,0.7,0.2s0.5,0,0.7-0.2c0.2-0.2,0.3-0.2,0.5-0.5c0.2-0.2,0.2-0.3,0.3-0.7c0-0.3,0.2-0.5,0.2-0.9c0-0.3,0-0.7-0.2-0.9
				c0-0.3-0.2-0.5-0.3-0.7c-0.2-0.2-0.3-0.3-0.5-0.5s-0.5-0.2-0.7-0.2s-0.5,0-0.7,0.2c-0.2,0.2-0.3,0.2-0.5,0.5
				c-0.2,0.3-0.2,0.3-0.3,0.7C82.5,71.9,82.5,72.3,82.5,72.6z"/>
			<path fill="#555555" d="M90.3,75.3l-0.2-0.5l0,0c0,0.2-0.2,0.2-0.2,0.3c0,0-0.2,0.2-0.3,0.2c-0.2,0-0.2,0.2-0.3,0.2s-0.2,0-0.3,0
				s-0.5,0-0.7-0.2c-0.2,0-0.3-0.2-0.5-0.3c-0.2-0.2-0.2-0.3-0.3-0.5s-0.2-0.3-0.2-0.7v-2.7h0.7v2.7c0,0.3,0,0.5,0.2,0.7
				c0.5,0.3,0.7,0.3,1,0.3c0.2,0,0.3,0,0.5-0.2c0.2,0,0.2-0.2,0.3-0.3c0-0.2,0.2-0.3,0.2-0.5c0-0.2,0-0.3,0-0.7v-2.2h0.7V75h-0.5
				V75.3z"/>
			<path fill="#555555" d="M93.4,74.8C93.4,74.8,93.5,74.8,93.4,74.8c0.2,0,0.3,0,0.3,0h0.2c0,0,0,0,0.2,0v0.5c0,0,0,0-0.2,0
				s-0.2,0-0.2,0h-0.2h-0.2c-0.2,0-0.3,0-0.5,0c-0.2,0-0.2-0.2-0.3-0.2c-0.2-0.2-0.2-0.2-0.2-0.3c0-0.2,0-0.3,0-0.7v-2.4h-0.5v-0.3
				l0.5-0.3l0.3-0.9H93v1h1v0.5h-1v2.4c0,0.2,0,0.3,0.2,0.5C93,74.8,93.2,74.8,93.4,74.8z"/>
		</g>
		<g>
			<path fill="#555555" d="M86.6,85c0,0.3,0,0.9-0.2,1.2c-0.2,0.3-0.2,0.7-0.5,0.9c-0.2,0.2-0.5,0.5-0.7,0.5c-0.3,0.2-0.7,0.2-1,0.2
				c-0.3,0-0.7,0-1-0.2c-0.3-0.2-0.5-0.3-0.7-0.5c-0.2-0.2-0.3-0.5-0.5-0.9c-0.2-0.3-0.2-0.7-0.2-1.2c0-0.5,0-0.9,0.2-1.2
				s0.2-0.7,0.5-0.9c0.2-0.2,0.5-0.5,0.7-0.5s0.7-0.2,1-0.2s0.7,0,1,0.2c0.3,0.2,0.5,0.3,0.7,0.5s0.3,0.5,0.5,0.9
				C86.4,84.2,86.6,84.7,86.6,85z M82.5,85c0,0.3,0,0.7,0.2,0.9c0,0.3,0.2,0.5,0.3,0.7s0.3,0.3,0.5,0.5c0.2,0.2,0.5,0.2,0.7,0.2
				s0.5,0,0.7-0.2c0.2-0.2,0.3-0.2,0.5-0.5c0.2-0.2,0.2-0.3,0.3-0.7c0-0.3,0.2-0.5,0.2-0.9s0-0.7-0.2-0.9c0-0.3-0.2-0.5-0.3-0.7
				S85,83.2,84.9,83s-0.5-0.2-0.7-0.2s-0.5,0-0.7,0.2c-0.2,0.2-0.3,0.2-0.5,0.5c-0.2,0.3-0.2,0.3-0.3,0.7
				C82.5,84.3,82.5,84.7,82.5,85z"/>
			<path fill="#555555" d="M90.3,87.7l-0.2-0.5l0,0c0,0.2-0.2,0.2-0.2,0.3c0,0-0.2,0.2-0.3,0.2c-0.2,0-0.2,0.2-0.3,0.2s-0.2,0-0.3,0
				s-0.5,0-0.7-0.2c-0.2,0-0.3-0.2-0.5-0.3c-0.2-0.2-0.2-0.3-0.3-0.5c-0.2-0.2-0.2-0.3-0.2-0.7v-2.7h0.7v2.7c0,0.3,0,0.5,0.2,0.7
				s0.3,0.2,0.7,0.2c0.2,0,0.3,0,0.5-0.2c0.2,0,0.2-0.2,0.3-0.3c0-0.2,0.2-0.3,0.2-0.5s0-0.3,0-0.7v-2.2h0.7v4.1h-0.2V87.7z"/>
			<path fill="#555555" d="M93.4,87.2C93.4,87.2,93.5,87.2,93.4,87.2c0.2,0,0.3,0,0.3,0h0.2c0,0,0,0,0.2,0v0.5c0,0,0,0-0.2,0
				s-0.2,0-0.2,0h-0.2h-0.2c-0.2,0-0.3,0-0.5,0c-0.2,0-0.2-0.2-0.3-0.2c-0.2-0.2-0.2-0.2-0.2-0.3s0-0.3,0-0.7v-2.4h-0.5v-0.3
				l0.5-0.3l0.3-0.9H93v1h1v0.5h-1v2.4c0,0.2,0,0.3,0.2,0.5C93,87.2,93.2,87.2,93.4,87.2z"/>
		</g>
		<g>
			<g>
				<path fill="#999999" d="M72.6,88.8c0.3,0,0.5,0,0.9,0.2c0.2,0,0.5,0.2,0.5,0.3c0.2,0.2,0.3,0.3,0.3,0.5s0.2,0.5,0.2,0.7v0.9
					h-3.6v-1c0-0.3,0-0.5,0.2-0.7s0.2-0.3,0.3-0.5c0.2-0.2,0.3-0.3,0.5-0.3C72.1,88.8,72.3,88.8,72.6,88.8z M72.6,89.3
					c-0.2,0-0.5,0-0.7,0s-0.3,0.2-0.5,0.2c-0.2,0.2-0.2,0.2-0.3,0.3c0,0.2,0,0.3,0,0.5v0.5H74v-0.3c0-0.5-0.2-0.9-0.3-1
					C73.5,89.3,73.1,89.3,72.6,89.3z"/>
				<path fill="#999999" d="M71.1,88.1c-0.2,0-0.2,0-0.2,0v-0.2c0,0,0,0,0-0.2l0,0c0,0,0,0,0.2,0c0,0,0,0,0.2,0s0.2,0,0.2,0v0.2v0.2
					C71.3,88.1,71.1,88.1,71.1,88.1z M74.5,87.6v0.5h-2.7v-0.5H74.5z"/>
				<path fill="#999999" d="M71.8,84.7h0.3v0.5l0.2-0.2c0.2,0,0.2,0,0.3,0c0.2,0,0.2,0,0.3,0s0.2,0.2,0.3,0.2c0,0,0.2,0.2,0.2,0.3
					s0,0.2,0,0.3c0,0,0,0,0,0.2c0,0,0,0,0,0.2l0,0l0,0c0,0,0,0,0.2,0c0,0,0,0,0.2,0c0,0,0,0,0.2,0l0,0c0,0,0,0,0-0.2v-0.2v-0.5
					c0-0.2,0-0.3,0-0.3c0-0.2,0.2-0.2,0.2-0.3l0.2-0.2c0.2,0,0.2,0,0.3,0c0.2,0,0.3,0,0.3,0c0.2,0,0.2,0.2,0.3,0.2
					c0,0.2,0.2,0.2,0.2,0.3c0,0.2,0,0.3,0,0.7c0,0.2,0,0.3,0,0.5s0,0.2-0.2,0.3c0,0.2-0.2,0.2-0.2,0.2c-0.2,0-0.2,0-0.3,0
					c-0.2,0-0.2,0-0.3,0c0,0-0.2,0-0.2-0.2l-0.2-0.2v-0.2c0,0,0,0.2-0.2,0.2h-0.2c-0.2,0-0.2,0-0.3,0l-0.2-0.2c0,0,0,0.2-0.2,0.2
					L73,86.6c0,0-0.2,0-0.2,0.2h-0.2c-0.2,0-0.3,0-0.3,0s-0.2-0.2-0.3-0.2c0,0-0.2-0.2-0.2-0.3s0-0.3,0-0.3v-0.2v-0.2L71.8,84.7
					L71.8,84.7z M72.6,86.4c0.2,0,0.3,0,0.5-0.2c0.2-0.2,0.2-0.2,0.2-0.3s0-0.3-0.2-0.3c-0.2,0-0.2-0.2-0.5-0.2
					c-0.2,0-0.3,0-0.5,0.2c-0.2,0.2-0.2,0.2-0.2,0.3c0,0.2,0,0.3,0.2,0.3C72.3,86.2,72.4,86.4,72.6,86.4z M75,86.7h0.2
					c0,0,0.2,0,0.2-0.2c0,0,0-0.2,0.2-0.2c0,0,0-0.2,0-0.3c0-0.3,0-0.5-0.2-0.7c-0.2-0.2-0.2-0.2-0.3-0.2h-0.2c0,0-0.2,0-0.2,0.2
					v0.2c0,0,0,0.2,0,0.3v0.5v0.2v0.2l0.2,0.2C74.8,86.7,74.8,86.7,75,86.7z"/>
				<path fill="#999999" d="M71.1,84.2c-0.2,0-0.2,0-0.2,0V84c0,0,0,0,0-0.2c0,0,0,0,0-0.2c0,0,0,0,0.2,0c0,0,0,0,0.2,0s0.2,0,0.2,0
					v0.2V84C71.3,84.2,71.1,84.2,71.1,84.2z M74.5,83.7v0.5h-2.7v-0.5H74.5z"/>
				<path fill="#999999" d="M74.1,82L74.1,82c0-0.2,0-0.2,0-0.2s0,0,0-0.2l0,0h0.3l0,0c0,0,0,0,0,0.2c0,0,0,0,0,0.2c0,0,0,0,0,0.2
					c0,0.2,0,0.2,0,0.3c0,0.2,0,0.2-0.2,0.2c0,0-0.2,0.2-0.3,0.2c-0.2,0-0.2,0-0.3,0h-1.5v0.3h-0.2l-0.2-0.3l-0.5-0.2v-0.3h0.7v-0.7
					h0.3v0.7h1.5c0.2,0,0.3,0,0.3,0S74.1,82.1,74.1,82z"/>
				<path fill="#999999" d="M74.5,79.6l-0.3,0.2l0,0l0.2,0.2l0.2,0.2v0.2c0,0,0,0.2,0,0.3s0,0.2,0,0.3c0,0.2,0,0.2-0.2,0.2l-0.2,0.2
					c-0.2,0-0.2,0-0.3,0c-0.3,0-0.5-0.2-0.7-0.3S73,80.4,73,80.1v-0.5h-0.2c-0.2,0-0.2,0-0.3,0c0,0-0.2,0-0.2,0.2c0,0,0,0.2-0.2,0.2
					c-0.2,0,0,0.2,0,0.2c0,0.2,0,0.3,0,0.3c0,0.2,0.2,0.2,0.2,0.3l-0.3,0.2c0-0.2-0.2-0.3-0.2-0.3s0-0.3,0-0.5c0-0.2,0-0.3,0-0.5
					s0.2-0.2,0.2-0.3c0,0,0.2-0.2,0.3-0.2c0.2,0,0.2,0,0.3,0h1.9V79.6z M74.1,80.4c0-0.2,0-0.2,0-0.3s0-0.2-0.2-0.2l-0.2-0.2
					c-0.2,0-0.2,0-0.3,0h-0.2v0.3c0,0.2,0,0.3,0,0.3s0,0.2,0.2,0.2l0.2,0.2h0.2c0.2,0,0.3,0,0.3-0.2V80.4z"/>
				<path fill="#999999" d="M74.5,77.9v0.5h-3.9v-0.5H74.5z"/>
				<path fill="#999999" d="M71.9,73.5c0.2,0,0.3,0,0.5,0s0.3,0.2,0.3,0.2c0.2,0.2,0.2,0.2,0.3,0.3c0,0.2,0.2,0.3,0.2,0.7V75h1.4
					v0.5h-3.6v-0.7c0-0.2,0-0.3,0-0.5s0.2-0.3,0.2-0.3c0.2-0.2,0.2-0.2,0.3-0.2S71.8,73.5,71.9,73.5z M72.6,75.2v-0.3
					c0-0.2,0-0.3,0-0.3c0-0.2,0-0.2-0.2-0.3L72.3,74c-0.2,0-0.2,0-0.3,0c-0.2,0-0.3,0-0.5,0.2s-0.2,0.3-0.2,0.7v0.3H72.6z"/>
				<path fill="#999999" d="M71.1,72.8c-0.2,0-0.2,0-0.2,0v-0.2c0,0,0,0,0-0.2l0,0c0,0,0,0,0.2,0c0,0,0,0,0.2,0s0.2,0,0.2,0v0.2v0.2
					C71.3,72.8,71.1,72.8,71.1,72.8z M74.5,72.3v0.5h-2.7v-0.5H74.5z"/>
				<path fill="#999999" d="M74.5,69.7h-1.7c-0.2,0-0.3,0-0.5,0.2c-0.2,0.2-0.2,0.2-0.2,0.3c0,0.2,0,0.2,0,0.3
					c0,0.2,0.2,0.2,0.2,0.2s0.2,0.2,0.3,0.2c0.2,0,0.3,0,0.3,0h1.4v0.5h-2.7v-0.3h0.3l0,0l-0.2-0.2l-0.2-0.2v-0.2v-0.2
					c0-0.3,0-0.5,0.2-0.7c0.2-0.2,0.3-0.2,0.7-0.2h1.9v0.2H74.5z"/>
				<path fill="#999999" d="M73.8,66.8c0.2,0,0.2,0,0.3,0s0.2,0.2,0.2,0.2c0,0.2,0.2,0.2,0.2,0.3s0,0.3,0,0.5s0,0.3,0,0.5
					s0,0.2-0.2,0.3H74v-0.2v-0.2v-0.2V68c0-0.2,0-0.2,0-0.3v-0.2c0,0,0,0-0.2-0.2h-0.2h-0.2c0,0,0,0-0.2,0.2c0,0,0,0.2-0.2,0.2
					s0.2,0,0.2,0.2s-0.2,0.2-0.2,0.3c0,0.2-0.2,0.2-0.2,0.2l-0.2,0.2c0,0-0.2,0-0.3,0c-0.2,0-0.2,0-0.3,0s-0.2-0.2-0.2-0.2
					s-0.2-0.2-0.2-0.3s0-0.2,0-0.3s0-0.3,0-0.5s0-0.3,0.2-0.3l0.3,0.2c0,0.2-0.2,0.2-0.2,0.3s0,0.2,0,0.3c0,0.2,0,0.3,0,0.3l0.2,0.2
					h0.2c0,0,0,0,0.2-0.2s0-0.2,0.2-0.2c0,0,0-0.2,0.2-0.3c0-0.2,0.2-0.2,0.2-0.3c0-0.2,0.2-0.2,0.2-0.2l0.2-0.2
					C73.5,66.8,73.6,66.8,73.8,66.8z"/>
			</g>
		</g>
		<g>
			<path fill="#555555" d="M56.8,103.4h1.9v2.7c-0.2,0-0.3,0-0.3,0.2c-0.2,0-0.3,0-0.5,0.2c-0.2,0.2-0.3,0-0.5,0c-0.2,0-0.3,0-0.5,0
				c-0.3,0-0.7,0-1-0.2c-0.3-0.2-0.5-0.3-0.7-0.5s-0.3-0.5-0.5-0.9c-0.2-0.3-0.2-0.7-0.2-1.2c0-0.5,0-0.9,0.2-1.2
				c0.2-0.3,0.3-0.7,0.5-0.9c0.2-0.2,0.5-0.5,0.9-0.5c0.3-0.2,0.7-0.2,1.2-0.2c0.3,0,0.5,0,0.9,0c0.3,0,0.5,0.2,0.7,0.2l-0.3,0.7
				c-0.2,0-0.2,0-0.3-0.2c-0.2,0-0.2,0-0.3-0.2c-0.2,0-0.2,0-0.3,0s-0.2,0-0.3,0c-0.3,0-0.5,0-0.9,0.2c-0.2,0.2-0.5,0.2-0.5,0.5
				c-0.2,0.2-0.3,0.3-0.3,0.7c0,0.3-0.2,0.5-0.2,0.9c0,0.3,0,0.7,0.2,0.9c0,0.3,0.2,0.5,0.3,0.7s0.3,0.3,0.5,0.5
				c0.2,0.2,0.5,0.2,0.9,0.2c0.2,0,0.2,0,0.3,0s0.2,0,0.2,0h0.2h0.2v-1.7h-1.2v-0.9H56.8z"/>
			<path fill="#555555" d="M62.4,106.3v-2.7c0-0.3,0-0.5-0.2-0.7s-0.3-0.2-0.7-0.2c-0.2,0-0.3,0-0.5,0.2c-0.2,0-0.2,0.2-0.3,0.3
				c0,0.2-0.2,0.3-0.2,0.5c0,0.2,0,0.3,0,0.7v2.2h-0.7v-4.1h0.5l0.2,0.5l0,0c0-0.2,0.2-0.2,0.2-0.3c0.2,0,0.2-0.2,0.3-0.2
				s0.2-0.2,0.3-0.2c0.2,0,0.2,0,0.3,0c0.5,0,0.9,0.2,1,0.3c0.2,0.2,0.3,0.7,0.3,1.2v2.7h-0.7V106.3z"/>
			<path fill="#555555" d="M66.8,105.8L66.8,105.8l-0.2,0.2l-0.2,0.2c-0.2,0-0.2,0.2-0.3,0.2c-0.2,0-0.2,0-0.3,0
				c-0.2,0-0.5,0-0.7-0.2c-0.2-0.2-0.3-0.2-0.5-0.3c-0.2-0.2-0.2-0.3-0.3-0.7c-0.2-0.3-0.2-0.5-0.2-0.9s0-0.7,0.2-0.9
				c0-0.3,0.2-0.5,0.3-0.7c0.2-0.2,0.3-0.3,0.5-0.3c0.2-0.2,0.3-0.2,0.7-0.2c0.2,0,0.3,0,0.3,0c0.2,0,0.2,0,0.3,0.2
				c0.2,0,0.2,0.2,0.3,0.2l0.2,0.2l0,0v-0.2v-0.2v-0.2v-1.7h0.7v5.8h-0.5L66.8,105.8z M65.8,105.8c0.2,0,0.3,0,0.5,0
				c0.2,0,0.2-0.2,0.3-0.3c0-0.2,0.2-0.3,0.2-0.5c0-0.2,0-0.3,0-0.7v-0.2c0-0.2,0-0.5,0-0.7c0-0.2-0.2-0.3-0.2-0.5
				c0-0.2-0.2-0.2-0.3-0.3s-0.3-0.2-0.5-0.2c-0.3,0-0.5,0.2-0.7,0.3c-0.2,0.7-0.3,1-0.3,1.5c0,0.5,0,0.9,0.2,1.2
				C65.3,105.6,65.5,105.8,65.8,105.8z"/>
		</g>
		<g>
			<path fill="#555555" d="M59,15.8h0.7L58,21.3h-0.7l-1.9-5.4h0.7l1,3.4c0,0.2,0.2,0.5,0.2,0.7s0.2,0.3,0.2,0.5
				c0-0.2,0-0.3,0.2-0.5c0.2-0.2,0.2-0.5,0.2-0.7L59,15.8z"/>
		</g>
		<g>
			<path fill="#555555" d="M61.7,21.4c-0.2,0-0.5,0-0.7-0.2c-0.2-0.2-0.3-0.2-0.5-0.3c-0.2-0.2-0.3-0.3-0.3-0.7
				c-0.2-0.3-0.2-0.5-0.2-1c0-0.3,0-0.7,0.2-1c0.2-0.3,0.2-0.5,0.3-0.7s0.3-0.3,0.5-0.3c0.2,0,0.5-0.2,0.7-0.2s0.3,0,0.5,0
				c0.2,0,0.3,0.2,0.5,0.2l-0.2,0.5h-0.2h-0.2h-0.2h-0.2c-0.3,0-0.7,0.2-0.9,0.3s-0.3,0.7-0.3,1.2c0,0.5,0.2,0.9,0.3,1.2
				c0.2,0.2,0.5,0.3,0.9,0.3c0.2,0,0.3,0,0.5,0s0.3-0.2,0.5-0.2v0.7c-0.2,0-0.3,0.2-0.5,0.2C62.2,21.4,62.1,21.4,61.7,21.4z"/>
		</g>
		<g>
			<path fill="#555555" d="M65.3,21.4c-0.2,0-0.5,0-0.7-0.2c-0.2-0.2-0.3-0.2-0.5-0.3c-0.2-0.2-0.3-0.3-0.3-0.7
				c-0.2-0.3-0.2-0.5-0.2-1c0-0.3,0-0.7,0.2-1c0.2-0.3,0.2-0.5,0.3-0.7c0.2-0.2,0.3-0.3,0.5-0.3c0.2,0,0.5-0.2,0.7-0.2s0.3,0,0.5,0
				c0.2,0,0.3,0.2,0.5,0.2l-0.2,0.5H66h-0.2h-0.2h-0.2c-0.3,0-0.7,0.2-0.9,0.3s-0.3,0.7-0.3,1.2c0,0.5,0.2,0.9,0.3,1.2
				c0.2,0.2,0.5,0.3,0.9,0.3c0.2,0,0.3,0,0.5,0c0.2,0,0.3-0.2,0.5-0.2v0.7c-0.2,0-0.3,0.2-0.5,0.2C65.8,21.4,65.6,21.4,65.3,21.4z"
				/>
		</g>
		<g display="none">
			<path display="inline" fill="#555555" d="M30.1,38.6h-2v-0.3l0.7-0.2v-4.4l-0.7-0.2v-0.3h2v0.3l-0.7,0.2v4.4l0.7,0.2
				C30.1,38.3,30.1,38.6,30.1,38.6z"/>
			<path display="inline" fill="#555555" d="M33.7,38.6v-2.7c0-0.3,0-0.5-0.2-0.7C33.3,35,33.2,35,32.8,35c-0.2,0-0.3,0-0.5,0.2
				c-0.2,0-0.2,0.2-0.3,0.3c0,0.2-0.2,0.3-0.2,0.5s0,0.3,0,0.7v2.2h-0.7v-4.1h0.5l0.2,0.5l0,0c0-0.2,0.2-0.2,0.2-0.3
				c0.2,0,0.2-0.2,0.3-0.2s0.2-0.2,0.3-0.2s0.2,0,0.3,0c0.5,0,0.9,0.2,1,0.3c0.2,0.2,0.3,0.7,0.3,1.2v2.7h-0.7V38.6z"/>
		</g>
		<g display="none">
			<path display="inline" fill="#555555" d="M30.1,51h-2v-0.3l0.7-0.2v-4.4l-0.7-0.2v-0.3h2v0.3l-0.7,0.2v4.4l0.7,0.2
				C30.1,50.7,30.1,51,30.1,51z"/>
			<path display="inline" fill="#555555" d="M33.5,51v-2.7c0-0.3,0-0.5-0.2-0.7s-0.3-0.2-0.7-0.2c-0.2,0-0.3,0-0.5,0.2
				c-0.2,0-0.2,0.2-0.3,0.3c0,0.2-0.2,0.3-0.2,0.5c0,0.2,0,0.3,0,0.7V51H31v-4.1h0.5l0.2,0.5l0,0c0-0.2,0.2-0.2,0.2-0.3
				c0.2,0,0.2-0.2,0.3-0.2c0.2,0,0.2-0.2,0.3-0.2s0.2,0,0.3,0c0.5,0,0.9,0.2,1,0.3s0.3,0.7,0.3,1.2V51H33.5z"/>
		</g>
		<g display="none">
			<path display="inline" fill="#555555" d="M30.1,63.1h-2v-0.3l0.7-0.2v-4.4L28.1,58v-0.3h2V58l-0.7,0.2v4.4l0.7,0.2
				C30.1,62.8,30.1,63.1,30.1,63.1z"/>
			<path display="inline" fill="#555555" d="M33.7,63.1v-2.7c0-0.3,0-0.5-0.2-0.7c-0.2-0.2-0.3-0.2-0.7-0.2c-0.2,0-0.3,0-0.5,0.2
				c-0.2,0-0.2,0.2-0.3,0.3c0,0.2-0.2,0.3-0.2,0.5c0,0.2,0,0.3,0,0.7v2.2h-0.7v-4.1h0.5l0.2,0.5l0,0c0-0.2,0.2-0.2,0.2-0.3
				c0.2,0,0.2-0.2,0.3-0.2s0.2-0.2,0.3-0.2s0.2,0,0.3,0c0.5,0,0.9,0.2,1,0.3c0.2,0.2,0.3,0.7,0.3,1.2v2.7h-0.7V63.1z"/>
		</g>
		<g display="none">
			<path display="inline" fill="#555555" d="M30.1,75.5h-2v-0.3l0.7-0.2v-4.4l-0.7-0.2v-0.3h2v0.3l-0.7,0.2V75l0.7,0.2
				C30.1,75.2,30.1,75.5,30.1,75.5z"/>
			<path display="inline" fill="#555555" d="M33.5,75.5v-2.7c0-0.3,0-0.5-0.2-0.7c-0.2-0.2-0.3-0.2-0.7-0.2c-0.2,0-0.3,0-0.5,0.2
				c-0.2,0-0.2,0.2-0.3,0.3c0,0.2-0.2,0.3-0.2,0.5s0,0.3,0,0.7v2.2H31v-4.4h0.5l0.2,0.5l0,0c0-0.2,0.2-0.2,0.2-0.3
				c0.2,0,0.2-0.2,0.3-0.2c0.2,0,0.2-0.2,0.3-0.2s0.2,0,0.3,0c0.5,0,0.9,0.2,1,0.3c0.2,0.2,0.3,0.7,0.3,1.2v2.7H33.5z"/>
		</g>
		<g display="none">
			<path display="inline" fill="#555555" d="M86.6,35.9c0,0.3,0,0.9-0.2,1.2c-0.2,0.3-0.2,0.7-0.5,0.9c-0.2,0.2-0.5,0.5-0.7,0.5
				c-0.3,0.2-0.7,0.2-1,0.2c-0.3,0-0.7,0-1-0.2c-0.3-0.2-0.5-0.3-0.7-0.5c-0.2-0.2-0.3-0.5-0.5-0.9c-0.2-0.5-0.2-0.9-0.2-1.2
				c0-0.3,0-0.9,0.2-1.2c0.2-0.3,0.2-0.7,0.5-0.9c0.2-0.2,0.5-0.5,0.7-0.5s0.7-0.2,1-0.2s0.7,0,1,0.2c0.3,0.2,0.5,0.3,0.7,0.5
				c0.2,0.2,0.3,0.5,0.5,0.9C86.4,35,86.6,35.4,86.6,35.9z M82.5,35.9c0,0.3,0,0.7,0.2,0.9c0,0.3,0.2,0.5,0.3,0.7s0.3,0.3,0.5,0.5
				s0.5,0.2,0.7,0.2s0.5,0,0.7-0.2c0.2-0.2,0.3-0.2,0.5-0.5c0.2-0.2,0.2-0.3,0.3-0.7c0-0.3,0.2-0.5,0.2-0.9c0-0.3,0-0.7-0.2-0.9
				c0-0.3-0.2-0.5-0.3-0.7S85,34,84.9,33.8s-0.5-0.2-0.7-0.2s-0.5,0-0.7,0.2C83.3,34,83.2,34,83,34.4c-0.2,0.3-0.2,0.3-0.3,0.7
				C82.5,35.2,82.5,35.5,82.5,35.9z"/>
			<path display="inline" fill="#555555" d="M90.3,38.6l-0.2-0.5l0,0c0,0.2-0.2,0.2-0.2,0.3c0,0-0.2,0.2-0.3,0.2
				c-0.2,0-0.2,0.2-0.3,0.2s-0.2,0-0.3,0s-0.5,0-0.7-0.2c-0.2,0-0.3-0.2-0.5-0.3c-0.2-0.2-0.2-0.3-0.3-0.5c-0.2-0.2-0.2-0.3-0.2-0.7
				v-2.7h0.7v2.7c0,0.3,0,0.5,0.2,0.7c0.2,0.2,0.3,0.2,0.7,0.2c0.2,0,0.3,0,0.5-0.2c0.2,0,0.2-0.2,0.3-0.3c0-0.2,0.2-0.3,0.2-0.5
				c0-0.2,0-0.3,0-0.7V34h0.7v4.1h-0.2V38.6z"/>
			<path display="inline" fill="#555555" d="M93.4,38.1C93.4,38.1,93.5,38.1,93.4,38.1c0.2,0,0.3,0,0.3,0h0.2c0,0,0,0,0.2,0v0.5
				c0,0,0,0-0.2,0s-0.2,0-0.2,0h-0.2h-0.2c-0.2,0-0.3,0-0.5,0c-0.2,0-0.2-0.2-0.3-0.2c-0.2-0.2-0.2-0.2-0.2-0.3c0-0.2,0-0.3,0-0.7
				V35h-0.5v-0.3l0.5-0.3l0.3-0.9H93v1h1V35h-1v2.4c0,0.2,0,0.3,0.2,0.5C93,38.1,93.2,38.1,93.4,38.1z"/>
		</g>
		<g display="none">
			<path display="inline" fill="#555555" d="M86.6,48.3c0,0.3,0,0.9-0.2,1.2c-0.2,0.3-0.2,0.7-0.5,0.9c-0.2,0.2-0.5,0.5-0.7,0.5
				c-0.3,0.2-0.7,0.2-1,0.2c-0.3,0-0.7,0-1-0.2c-0.3-0.2-0.5-0.3-0.7-0.5c-0.2-0.2-0.3-0.5-0.5-0.9c-0.2-0.5-0.2-0.9-0.2-1.2
				c0-0.3,0-0.9,0.2-1.2c0.2-0.3,0.2-0.7,0.5-0.9c0.2-0.2,0.5-0.5,0.7-0.5s0.7-0.2,1-0.2s0.7,0,1,0.2c0.3,0.2,0.5,0.3,0.7,0.5
				c0.2,0.2,0.3,0.5,0.5,0.9C86.4,47.4,86.6,47.8,86.6,48.3z M82.5,48.3c0,0.3,0,0.7,0.2,0.9c0,0.3,0.2,0.5,0.3,0.7
				c0.2,0.2,0.3,0.3,0.5,0.5c0.2,0.2,0.5,0.2,0.7,0.2s0.5,0,0.7-0.2c0.2-0.2,0.3-0.2,0.5-0.5c0.2-0.2,0.2-0.3,0.3-0.7
				c0-0.3,0.2-0.5,0.2-0.9c0-0.3,0-0.7-0.2-0.9c0-0.3-0.2-0.5-0.3-0.7c-0.2-0.2-0.3-0.3-0.5-0.5c-0.2-0.2-0.5-0.2-0.7-0.2
				s-0.5,0-0.7,0.2c-0.2,0.2-0.3,0.2-0.5,0.5c-0.2,0.3-0.2,0.3-0.3,0.7C82.5,47.6,82.5,48,82.5,48.3z"/>
			<path display="inline" fill="#555555" d="M90.3,51l-0.2-0.5l0,0c0,0.2-0.2,0.2-0.2,0.3c0,0-0.2,0.2-0.3,0.2
				c-0.2,0-0.2,0.2-0.3,0.2s-0.2,0-0.3,0s-0.5,0-0.7-0.2c-0.2,0-0.3-0.2-0.5-0.3c-0.2-0.2-0.2-0.3-0.3-0.5s-0.2-0.3-0.2-0.7v-2.7
				h0.7v2.7c0,0.3,0,0.5,0.2,0.7s0.3,0.2,0.7,0.2c0.2,0,0.3,0,0.5-0.2c0.2,0,0.2-0.2,0.3-0.3c0-0.2,0.2-0.3,0.2-0.5
				c0-0.2,0-0.3,0-0.7v-2.2h0.7V51H90.3z"/>
			<path display="inline" fill="#555555" d="M93.4,50.5C93.4,50.5,93.5,50.5,93.4,50.5c0.2,0,0.3,0,0.3,0h0.2c0,0,0,0,0.2,0V51
				c0,0,0,0-0.2,0s-0.2,0-0.2,0h-0.2h-0.2c-0.2,0-0.3,0-0.5,0c-0.2,0-0.2-0.2-0.3-0.2c-0.2-0.2-0.2-0.2-0.2-0.3s0-0.3,0-0.7v-2.4
				h-0.5v-0.3l0.5-0.3l0.3-0.9H93v1h1v0.5h-1v2.4c0,0.2,0,0.3,0.2,0.5C93,50.5,93.2,50.5,93.4,50.5z"/>
		</g>
		<line fill="none" stroke="#999999" stroke-width="0.2136" stroke-miterlimit="10" x1="77.7" y1="68.5" x2="77.7" y2="89.6"/>
	</g>
	<g>
		<path d="M50.8,36.6c0,0.3,0,0.7-0.2,0.9s-0.3,0.5-0.5,0.7s-0.5,0.3-0.9,0.3c-0.3,0.2-0.7,0.2-1,0.2c-0.3,0-0.7,0-1-0.2
			c-0.3,0-0.5-0.2-0.9-0.3v-0.7c0.2,0,0.2,0.2,0.3,0.2c0.2,0,0.3,0.2,0.5,0.2c0.2,0,0.3,0,0.5,0.2c0.2,0,0.3,0,0.5,0
			c0.5,0,0.9-0.2,1.2-0.3c0.3-0.2,0.3-0.5,0.3-0.9c0-0.2,0-0.3,0-0.5s-0.2-0.2-0.2-0.3c-0.2-0.2-0.3-0.2-0.7-0.3
			c-0.2-0.2-0.5-0.2-0.9-0.3c-0.3-0.2-0.5-0.2-0.9-0.3c-0.2-0.2-0.3-0.3-0.5-0.5c-0.2-0.2-0.2-0.3-0.3-0.5c-0.2-0.2-0.2-0.5-0.2-0.7
			c0-0.3,0-0.5,0.2-0.9c0.2-0.3,0.3-0.3,0.5-0.5c0.2-0.2,0.3-0.3,0.7-0.3c0.3,0,0.5-0.2,0.9-0.2c0.3,0,0.7,0,1,0.2
			c0.3,0,0.7,0.2,0.9,0.3v0.5c-0.2-0.2-0.5-0.2-0.7-0.2S49.1,32,48.8,32c-0.3,0-0.7,0.2-1,0.3c-0.2,0.2-0.3,0.5-0.3,0.7
			c0,0.2,0,0.3,0,0.5c0,0.2,0.2,0.3,0.2,0.3c0.2,0.2,0.3,0.2,0.5,0.3c0.2,0.2,0.5,0.2,0.7,0.3c0.3,0.2,0.5,0.2,0.9,0.3
			c0.3,0.2,0.3,0.3,0.5,0.5c0.2,0.2,0.3,0.3,0.3,0.5C50.5,36.1,50.8,36.4,50.8,36.6z"/>
		<path d="M55.3,38.6l-2.2-6.5l0,0c0,0.2,0,0.5,0,0.7c0,0.2,0,0.5,0,0.7c0,0.2,0,0.5,0,0.7v4.4h-0.9v-7.3h1.4l2,6l0,0l2-6H59v7.3
			h-0.9v-4.4c0-0.2,0-0.3,0-0.5c0-0.2,0-0.5,0-0.7c0-0.2,0-0.5,0-0.7l0,0l-2.2,6.3C55.9,38.6,55.3,38.6,55.3,38.6z"/>
		<path d="M63.3,38.6h-0.9v-6.5h-2v-0.9h5.1v0.9h-2v6.5H63.3z"/>
		<path d="M68.2,34.2c0.3,0,0.7,0,0.9,0.2s0.5,0.2,0.7,0.3c0.2,0.2,0.3,0.3,0.5,0.7c0.2,0.3,0.2,0.5,0.2,0.9c0,0.3,0,0.7-0.2,1
			c-0.2,0.3-0.3,0.5-0.5,0.9c-0.2,0.3-0.5,0.3-0.9,0.5c-0.3,0.2-0.7,0.2-1.2,0.2c-0.2,0-0.3,0-0.5,0c-0.2,0-0.3,0-0.5,0
			s-0.3,0-0.5-0.2c-0.2-0.2-0.3-0.2-0.3-0.2v-1c0.2,0,0.2,0.2,0.3,0.2c0.2,0,0.3,0.2,0.5,0.2s0.3,0,0.5,0.2c0.2,0.2,0.3,0,0.5,0
			c0.3,0,0.5,0,0.7-0.2c0.2-0.2,0.3-0.2,0.5-0.3s0.2-0.3,0.3-0.5c0.2-0.2,0.2-0.5,0.2-0.7c0-0.5-0.2-0.9-0.5-1
			c-0.3-0.2-0.7-0.3-1.4-0.3c-0.2,0-0.2,0-0.3,0s-0.2,0-0.3,0s-0.2,0-0.3,0s-0.2,0-0.2,0l-0.5-0.3l0.3-3.4h3.4V32h-2.7l-0.2,2
			c0.2,0,0.2,0,0.3,0S67.9,34.2,68.2,34.2z"/>
		<path d="M76.2,34.9c0,0.5,0,1.2-0.2,1.5c-0.2,0.3-0.2,0.9-0.3,1.2c-0.2,0.3-0.5,0.5-0.7,0.7c-0.2,0.2-0.7,0.2-1,0.2s-0.7,0-1-0.2
			c-0.3-0.2-0.5-0.3-0.7-0.7c-0.2-0.3-0.3-0.7-0.5-1.2c-0.2-0.5-0.2-0.9-0.2-1.5s0-1.2,0.2-1.5c0.2-0.3,0.2-0.9,0.3-1.2
			c0.2-0.3,0.3-0.5,0.7-0.7c0.3-0.2,0.7-0.2,1-0.2c0.3,0,0.7,0,1,0.2c0.3,0.2,0.5,0.3,0.7,0.7c0.2,0.3,0.3,0.7,0.5,1.2
			S76.2,34.4,76.2,34.9z M72.4,34.9c0,0.5,0,0.9,0,1.4s0.2,0.7,0.2,0.9c0.2,0.2,0.2,0.5,0.5,0.5c0.2,0.2,0.3,0.2,0.7,0.2
			s0.5,0,0.7-0.2c0.2-0.2,0.3-0.3,0.5-0.5c0.2-0.2,0.2-0.5,0.2-0.9c0-0.3,0-0.9,0-1.4s0-0.9,0-1.4c0-0.5-0.2-0.5-0.2-0.9
			s-0.3-0.5-0.5-0.5c-0.2,0-0.3-0.2-0.7-0.2s-0.5,0-0.7,0.2s-0.3,0.3-0.5,0.5s-0.2,0.5-0.2,0.9C72.4,33.8,72.4,34.4,72.4,34.9z"/>
	</g>
</g>
</svg>
