<?xml version="1.0" encoding="utf-8"?>
<!-- Generator: Adobe Illustrator 23.0.1, SVG Export Plug-In . SVG Version: 6.00 Build 0)  -->
<svg version="1.2" baseProfile="tiny" id="Ebene_1" xmlns="http://www.w3.org/2000/svg" xmlns:xlink="http://www.w3.org/1999/xlink"
	 x="0px" y="0px" width="90px" height="450px" viewBox="0 0 85 425.2" xml:space="preserve">
<g id="SMT50">
	<g id="model">
		<rect x="12" y="71.7" fill="#39B54A" width="60.9" height="216"/>
		<polygon fill="#39B54A" points="42.5,18.4 12,71.7 73,71.7 		"/>
		<rect x="18.7" y="71.7" fill="#599245" width="15.6" height="216"/>
		<rect x="50.3" y="71.7" fill="#599245" width="15.6" height="216"/>
		<polygon fill="#599245" points="18.7,71.7 34.3,41 34.3,102.4 		"/>
		<polygon fill="#599245" points="65.9,71.7 50.3,41 50.3,102.4 		"/>
		<path fill="#1A1A1A" d="M73.2,344.9c-0.3,16.6-13.9,30.1-30.4,30.2c-16.6,0.2-30.5-13.2-31-29.9c0.1-19.2,0.2-38.4,0.2-57.5H73
			C73.1,306.8,73.1,325.9,73.2,344.9z"/>
		<rect x="36.4" y="346.6" fill="#D95821" width="6.2" height="8.7"/>
		<rect x="48.9" y="346.6" fill="#FFE24D" width="6.2" height="8.7"/>
		<rect x="42.6" y="346.6" fill="#00A63D" width="6.2" height="8.7"/>
		<rect x="30.1" y="346.6" fill="#FFFFFF" width="6.2" height="8.7"/>
	</g>
	<g id="Text">
		<g>
			<rect x="48.1" y="71.7" fill="none" width="15.6" height="57"/>
			<path fill="#FFFFFF" d="M53.4,80.2c-0.6,0-1.1-0.1-1.5-0.3c-0.4-0.2-0.8-0.5-1.1-0.9s-0.5-0.8-0.7-1.4c-0.2-0.5-0.2-1.1-0.2-1.8
				c0-0.7,0.1-1.3,0.2-1.8c0.1-0.6,0.3-1,0.5-1.4H52c-0.1,0.2-0.2,0.4-0.3,0.7c-0.1,0.3-0.2,0.5-0.2,0.8s-0.1,0.6-0.2,0.9
				c0,0.3-0.1,0.6-0.1,0.9c0,0.9,0.2,1.6,0.5,2.1s0.9,0.7,1.5,0.7c0.3,0,0.6,0,0.8-0.1s0.4-0.2,0.6-0.4c0.2-0.2,0.4-0.5,0.6-0.9
				c0.2-0.4,0.4-0.8,0.6-1.4c0.2-0.5,0.4-1,0.7-1.4c0.2-0.4,0.5-0.7,0.8-0.9s0.7-0.4,1-0.6s0.8-0.2,1.3-0.2c0.5,0,1,0.1,1.4,0.3
				s0.7,0.5,1,0.8c0.3,0.3,0.5,0.7,0.6,1.2s0.2,1,0.2,1.6c0,0.7-0.1,1.3-0.2,1.9c-0.1,0.6-0.3,1.1-0.5,1.5l-1.4-0.6
				c0.2-0.4,0.3-0.8,0.4-1.3c0.1-0.5,0.2-1,0.2-1.5c0-0.7-0.2-1.3-0.5-1.7c-0.3-0.4-0.8-0.6-1.3-0.6c-0.3,0-0.6,0-0.9,0.1
				c-0.2,0.1-0.5,0.2-0.7,0.4c-0.2,0.2-0.4,0.5-0.6,0.8c-0.2,0.3-0.4,0.8-0.5,1.2c-0.2,0.5-0.4,1-0.7,1.4s-0.5,0.7-0.8,1
				s-0.6,0.5-1,0.6S53.9,80.2,53.4,80.2z"/>
			<path fill="#FFFFFF" d="M50,88.1l11.3-3.9v-0.1c-0.4,0-0.9,0.1-1.3,0.1c-0.4,0-0.8,0-1.2,0.1c-0.4,0-0.8,0-1.1,0H50v-1.5h12.8
				v2.4l-10.5,3.6v0.1l10.5,3.6V95H50v-1.6h7.8c0.3,0,0.7,0,1,0s0.8,0,1.1,0c0.4,0,0.8,0,1.3,0.1v-0.1L50,89.4V88.1z"/>
			<path fill="#FFFFFF" d="M50,102.2v-1.6h11.4v-3.7h1.4v9h-1.4v-3.7H50z"/>
			<path fill="#FFFFFF" d="M57.9,110.8c0,0.6-0.1,1.1-0.2,1.6c-0.2,0.5-0.4,0.9-0.7,1.3s-0.7,0.7-1.2,0.9s-1,0.3-1.6,0.3
				c-0.7,0-1.3-0.1-1.8-0.3s-1-0.5-1.4-0.9s-0.7-0.9-0.8-1.5c-0.2-0.6-0.3-1.2-0.3-2c0-0.3,0-0.6,0-0.9c0-0.3,0.1-0.6,0.1-0.8
				c0.1-0.3,0.1-0.5,0.2-0.8s0.2-0.5,0.3-0.7H52c-0.1,0.2-0.3,0.4-0.4,0.7s-0.2,0.5-0.3,0.8s-0.1,0.6-0.2,0.9c0,0.3-0.1,0.6-0.1,0.8
				c0,0.5,0.1,0.9,0.2,1.2c0.1,0.4,0.3,0.7,0.5,0.9s0.5,0.4,0.9,0.6s0.8,0.2,1.2,0.2c0.8,0,1.5-0.3,1.9-0.8c0.4-0.5,0.7-1.3,0.7-2.3
				c0-0.2,0-0.3,0-0.5c0-0.2,0-0.4-0.1-0.6c0-0.2,0-0.4-0.1-0.5c0-0.2-0.1-0.3-0.1-0.4l0.5-0.8l6,0.5v6.1h-1.5v-4.7l-3.7-0.3
				c0,0.2,0.1,0.4,0.1,0.7C57.9,110.1,57.9,110.4,57.9,110.8z"/>
			<path fill="#FFFFFF" d="M56.4,125c-1,0-2-0.1-2.8-0.2c-0.8-0.1-1.5-0.4-2.1-0.7s-1-0.8-1.3-1.3s-0.4-1.2-0.4-1.9
				c0-0.7,0.1-1.3,0.4-1.8c0.3-0.5,0.7-0.9,1.3-1.3s1.3-0.6,2.1-0.8c0.8-0.2,1.7-0.3,2.8-0.3s2,0.1,2.8,0.2c0.8,0.1,1.5,0.4,2.1,0.7
				c0.6,0.3,1,0.7,1.3,1.3c0.3,0.5,0.4,1.1,0.4,1.9c0,0.7-0.1,1.3-0.4,1.8c-0.3,0.5-0.7,0.9-1.3,1.3c-0.6,0.3-1.3,0.6-2.1,0.8
				S57.5,125,56.4,125z M56.4,118.4c-0.9,0-1.6,0-2.3,0.1s-1.2,0.2-1.6,0.4c-0.4,0.2-0.8,0.4-1,0.8c-0.2,0.3-0.3,0.7-0.3,1.1
				s0.1,0.8,0.3,1.2s0.5,0.6,1,0.8c0.4,0.2,1,0.3,1.6,0.4c0.7,0.1,1.4,0.1,2.3,0.1c0.9,0,1.6,0,2.3-0.1s1.2-0.2,1.6-0.4
				c0.4-0.2,0.8-0.5,1-0.8s0.3-0.7,0.3-1.2s-0.1-0.8-0.3-1.1s-0.5-0.6-1-0.8s-1-0.3-1.6-0.4S57.3,118.4,56.4,118.4z"/>
		</g>
		<g>
			<rect x="48.1" y="130.2" fill="none" width="10" height="114.9"/>
			<path fill="#FFFFFF" d="M53,134.5c-0.3,0-0.5-0.1-0.8-0.2c-0.2-0.1-0.4-0.2-0.6-0.4s-0.3-0.4-0.4-0.7s-0.1-0.6-0.1-0.9
				c0-0.3,0-0.6,0.1-0.9c0.1-0.3,0.1-0.5,0.2-0.7h0.8c0,0.1-0.1,0.2-0.1,0.3c0,0.1-0.1,0.3-0.1,0.4s-0.1,0.3-0.1,0.4
				c0,0.1,0,0.3,0,0.4c0,0.5,0.1,0.8,0.3,1c0.2,0.2,0.4,0.3,0.8,0.3c0.2,0,0.3,0,0.4-0.1c0.1,0,0.2-0.1,0.3-0.2s0.2-0.2,0.3-0.4
				c0.1-0.2,0.2-0.4,0.3-0.7c0.1-0.3,0.2-0.5,0.3-0.7s0.3-0.4,0.4-0.5s0.3-0.2,0.5-0.3c0.2-0.1,0.4-0.1,0.7-0.1c0.3,0,0.5,0,0.7,0.1
				c0.2,0.1,0.4,0.2,0.5,0.4c0.1,0.2,0.2,0.4,0.3,0.6c0.1,0.2,0.1,0.5,0.1,0.8c0,0.3,0,0.7-0.1,0.9c-0.1,0.3-0.2,0.5-0.3,0.7
				l-0.7-0.3c0.1-0.2,0.2-0.4,0.2-0.6c0.1-0.2,0.1-0.5,0.1-0.7c0-0.4-0.1-0.6-0.2-0.8s-0.4-0.3-0.7-0.3c-0.2,0-0.3,0-0.4,0.1
				c-0.1,0-0.2,0.1-0.3,0.2s-0.2,0.2-0.3,0.4c-0.1,0.2-0.2,0.4-0.3,0.6c-0.1,0.3-0.2,0.5-0.3,0.7c-0.1,0.2-0.2,0.4-0.4,0.5
				s-0.3,0.2-0.5,0.3C53.4,134.4,53.2,134.5,53,134.5z"/>
			<path fill="#FFFFFF" d="M53.7,140c-0.4,0-0.8,0-1.1-0.1c-0.3-0.1-0.6-0.2-0.8-0.4c-0.2-0.2-0.4-0.4-0.5-0.7s-0.2-0.6-0.2-0.9
				c0-0.3,0.1-0.6,0.2-0.8s0.3-0.5,0.5-0.7c0.2-0.2,0.5-0.3,0.8-0.4c0.3-0.1,0.7-0.2,1.1-0.2c0.4,0,0.8,0,1.1,0.1s0.6,0.2,0.8,0.4
				s0.4,0.4,0.5,0.7c0.1,0.3,0.2,0.6,0.2,0.9c0,0.3-0.1,0.6-0.2,0.8c-0.1,0.3-0.3,0.5-0.5,0.7s-0.5,0.3-0.8,0.4
				C54.4,140,54.1,140,53.7,140z M53.7,136.7c-0.6,0-1.1,0.1-1.4,0.3c-0.3,0.2-0.5,0.5-0.5,1s0.2,0.8,0.5,1c0.3,0.2,0.8,0.3,1.4,0.3
				c0.6,0,1.1-0.1,1.4-0.3c0.3-0.2,0.5-0.5,0.5-1s-0.2-0.8-0.5-1C54.7,136.8,54.3,136.7,53.7,136.7z"/>
			<path fill="#FFFFFF" d="M51.2,142.6v-0.8h4.8v0.8H51.2z M57.4,141.7c0.2,0,0.3,0,0.4,0.1s0.1,0.2,0.1,0.3c0,0.1,0,0.1,0,0.2
				c0,0.1,0,0.1-0.1,0.1c0,0-0.1,0.1-0.2,0.1s-0.1,0-0.2,0c-0.2,0-0.3,0-0.4-0.1c-0.1-0.1-0.1-0.2-0.1-0.3c0-0.1,0-0.2,0.1-0.3
				S57.2,141.7,57.4,141.7z"/>
			<path fill="#FFFFFF" d="M51.2,145.3v-0.8h6.8v0.8H51.2z"/>
			<path fill="#FFFFFF" d="M51.2,158.4l5.6-1.9v0c-0.2,0-0.4,0-0.6,0c-0.2,0-0.4,0-0.6,0s-0.4,0-0.6,0h-3.8v-0.8h6.4v1.2l-5.2,1.8v0
				l5.2,1.8v1.2h-6.4v-0.8h3.9c0.2,0,0.3,0,0.5,0c0.2,0,0.4,0,0.6,0c0.2,0,0.4,0,0.6,0v0l-5.6-2V158.4z"/>
			<path fill="#FFFFFF" d="M53.7,167.9c-0.4,0-0.8,0-1.1-0.1c-0.3-0.1-0.6-0.2-0.8-0.4c-0.2-0.2-0.4-0.4-0.5-0.7s-0.2-0.6-0.2-0.9
				c0-0.3,0.1-0.6,0.2-0.8s0.3-0.5,0.5-0.7c0.2-0.2,0.5-0.3,0.8-0.4c0.3-0.1,0.7-0.2,1.1-0.2c0.4,0,0.8,0,1.1,0.1
				c0.3,0.1,0.6,0.2,0.8,0.4s0.4,0.4,0.5,0.7c0.1,0.3,0.2,0.6,0.2,0.9c0,0.3-0.1,0.6-0.2,0.8c-0.1,0.3-0.3,0.5-0.5,0.7
				c-0.2,0.2-0.5,0.3-0.8,0.4C54.4,167.8,54.1,167.9,53.7,167.9z M53.7,164.5c-0.6,0-1.1,0.1-1.4,0.3c-0.3,0.2-0.5,0.5-0.5,1
				s0.2,0.8,0.5,1c0.3,0.2,0.8,0.3,1.4,0.3c0.6,0,1.1-0.1,1.4-0.3c0.3-0.2,0.5-0.5,0.5-1s-0.2-0.8-0.5-1
				C54.7,164.6,54.3,164.5,53.7,164.5z"/>
			<path fill="#FFFFFF" d="M51.2,170.4v-0.8h4.8v0.8H51.2z M57.4,169.5c0.2,0,0.3,0,0.4,0.1c0.1,0.1,0.1,0.2,0.1,0.3
				c0,0.1,0,0.1,0,0.2c0,0.1,0,0.1-0.1,0.1c0,0-0.1,0.1-0.2,0.1c-0.1,0-0.1,0-0.2,0c-0.2,0-0.3,0-0.4-0.1c-0.1-0.1-0.1-0.2-0.1-0.3
				c0-0.1,0-0.2,0.1-0.3C57.1,169.6,57.2,169.5,57.4,169.5z"/>
			<path fill="#FFFFFF" d="M52.6,175.3c-0.2,0-0.4,0-0.6-0.1s-0.3-0.2-0.4-0.4c-0.1-0.2-0.2-0.4-0.3-0.6c-0.1-0.2-0.1-0.5-0.1-0.8
				c0-0.3,0-0.6,0.1-0.8c0.1-0.2,0.1-0.4,0.2-0.6h0.7c0,0.1-0.1,0.2-0.1,0.3c0,0.1-0.1,0.2-0.1,0.4s-0.1,0.2-0.1,0.4
				c0,0.1,0,0.3,0,0.4c0,0.2,0,0.4,0,0.5c0,0.1,0.1,0.2,0.1,0.3c0.1,0.1,0.1,0.1,0.2,0.2c0.1,0,0.2,0.1,0.3,0.1c0.1,0,0.2,0,0.2,0
				c0.1,0,0.1-0.1,0.2-0.2c0.1-0.1,0.1-0.2,0.2-0.3s0.2-0.3,0.2-0.5s0.2-0.4,0.3-0.6c0.1-0.2,0.2-0.3,0.3-0.4s0.2-0.2,0.4-0.3
				c0.1-0.1,0.3-0.1,0.5-0.1c0.2,0,0.4,0,0.5,0.1c0.2,0.1,0.3,0.2,0.4,0.3c0.1,0.1,0.2,0.3,0.2,0.5c0.1,0.2,0.1,0.4,0.1,0.7
				c0,0.3,0,0.5-0.1,0.8c-0.1,0.2-0.1,0.5-0.2,0.7l-0.6-0.3c0.1-0.2,0.2-0.4,0.2-0.6c0.1-0.2,0.1-0.4,0.1-0.6c0-0.3,0-0.5-0.1-0.7
				c-0.1-0.1-0.2-0.2-0.4-0.2c-0.1,0-0.2,0-0.3,0.1c-0.1,0-0.1,0.1-0.2,0.2s-0.1,0.2-0.2,0.3c-0.1,0.1-0.1,0.3-0.2,0.5
				c-0.1,0.2-0.2,0.4-0.3,0.6c-0.1,0.2-0.2,0.3-0.3,0.4c-0.1,0.1-0.2,0.2-0.4,0.3S52.8,175.3,52.6,175.3z"/>
			<path fill="#FFFFFF" d="M51.8,178.4c0,0.1,0,0.1,0,0.2c0,0.1,0,0.1,0,0.2s0,0.1,0,0.2c0,0.1,0,0.1,0,0.1h-0.6c0,0,0-0.1-0.1-0.1
				s0-0.1,0-0.2c0-0.1,0-0.1,0-0.2c0-0.1,0-0.2,0-0.2c0-0.2,0-0.3,0.1-0.5s0.1-0.3,0.2-0.4c0.1-0.1,0.3-0.2,0.5-0.3s0.4-0.1,0.7-0.1
				h2.8v-0.7h0.4l0.3,0.7l1,0.3v0.5h-1.1v1.2h-0.6v-1.2h-2.8c-0.3,0-0.5,0-0.6,0.1C51.9,178,51.8,178.1,51.8,178.4z"/>
			<path fill="#FFFFFF" d="M51.2,183.5l0.6-0.1v0c-0.1-0.1-0.2-0.2-0.3-0.3c-0.1-0.1-0.2-0.2-0.2-0.3s-0.1-0.2-0.1-0.4s0-0.3,0-0.4
				c0-0.3,0-0.5,0.1-0.7c0.1-0.2,0.2-0.4,0.3-0.5c0.1-0.1,0.3-0.2,0.5-0.3c0.2-0.1,0.5-0.1,0.8-0.1h3.2v0.8H53
				c-0.4,0-0.7,0.1-0.9,0.2c-0.2,0.2-0.3,0.4-0.3,0.7c0,0.2,0,0.4,0.1,0.6c0.1,0.2,0.2,0.3,0.3,0.4c0.1,0.1,0.3,0.2,0.5,0.2
				c0.2,0,0.5,0.1,0.7,0.1h2.5v0.8h-4.8V183.5z"/>
			<path fill="#FFFFFF" d="M56.1,188.2c0,0.1,0,0.2,0,0.3c0,0.1,0,0.2,0,0.3l-0.7-0.1c0-0.1,0-0.2,0-0.3c0-0.1,0-0.2,0-0.2
				c0-0.2,0-0.4-0.1-0.5c-0.1-0.2-0.2-0.3-0.3-0.4c-0.1-0.1-0.3-0.2-0.5-0.3c-0.2-0.1-0.4-0.1-0.6-0.1h-2.6v-0.8h4.8v0.7l-0.9,0.1v0
				c0.1,0.1,0.2,0.2,0.4,0.2c0.1,0.1,0.2,0.2,0.3,0.3c0.1,0.1,0.2,0.2,0.2,0.3C56.1,187.9,56.1,188.1,56.1,188.2z"/>
			<path fill="#FFFFFF" d="M51.1,192.1c0-0.3,0.1-0.6,0.2-0.9c0.1-0.3,0.3-0.5,0.5-0.7c0.2-0.2,0.5-0.3,0.8-0.4
				c0.3-0.1,0.7-0.2,1.1-0.2c0.4,0,0.8,0,1.1,0.1s0.6,0.2,0.8,0.4c0.2,0.2,0.4,0.4,0.5,0.6c0.1,0.2,0.2,0.5,0.2,0.8
				c0,0.3-0.1,0.5-0.2,0.8s-0.3,0.4-0.4,0.6c-0.2,0.2-0.4,0.3-0.7,0.4c-0.3,0.1-0.6,0.1-0.9,0.1h-0.5v-3c-0.6,0-1,0.1-1.2,0.4
				c-0.3,0.2-0.4,0.6-0.4,1c0,0.1,0,0.3,0,0.4c0,0.1,0,0.3,0.1,0.4c0,0.1,0.1,0.2,0.1,0.3c0,0.1,0.1,0.2,0.1,0.3h-0.7
				c-0.1-0.1-0.1-0.2-0.1-0.3c0-0.1-0.1-0.2-0.1-0.3c0-0.1,0-0.2-0.1-0.4C51.2,192.4,51.1,192.2,51.1,192.1z M55.5,191.9
				c0-0.3-0.1-0.6-0.3-0.8c-0.2-0.2-0.6-0.3-1-0.3v2.2c0.2,0,0.4,0,0.5-0.1c0.2,0,0.3-0.1,0.4-0.2c0.1-0.1,0.2-0.2,0.3-0.3
				S55.5,192.1,55.5,191.9z"/>
			<path fill="#FFFFFF" d="M53,210.1c-0.3,0-0.5,0-0.8-0.2c-0.2-0.1-0.4-0.2-0.6-0.4s-0.3-0.4-0.4-0.7s-0.1-0.6-0.1-0.9
				c0-0.3,0-0.6,0.1-0.9c0.1-0.3,0.1-0.5,0.2-0.7h0.8c0,0.1-0.1,0.2-0.1,0.3c0,0.1-0.1,0.3-0.1,0.4s-0.1,0.3-0.1,0.4
				c0,0.1,0,0.3,0,0.4c0,0.5,0.1,0.8,0.3,1c0.2,0.2,0.4,0.3,0.8,0.3c0.2,0,0.3,0,0.4-0.1c0.1,0,0.2-0.1,0.3-0.2
				c0.1-0.1,0.2-0.3,0.3-0.4c0.1-0.2,0.2-0.4,0.3-0.7c0.1-0.3,0.2-0.5,0.3-0.7c0.1-0.2,0.3-0.3,0.4-0.5c0.2-0.1,0.3-0.2,0.5-0.3
				c0.2-0.1,0.4-0.1,0.7-0.1c0.3,0,0.5,0,0.7,0.1c0.2,0.1,0.4,0.2,0.5,0.4c0.1,0.2,0.2,0.4,0.3,0.6c0.1,0.2,0.1,0.5,0.1,0.8
				c0,0.3,0,0.7-0.1,0.9c-0.1,0.3-0.2,0.5-0.3,0.7l-0.7-0.3c0.1-0.2,0.2-0.4,0.2-0.6c0.1-0.2,0.1-0.5,0.1-0.7c0-0.4-0.1-0.6-0.2-0.8
				s-0.4-0.3-0.7-0.3c-0.2,0-0.3,0-0.4,0.1c-0.1,0-0.2,0.1-0.3,0.2s-0.2,0.2-0.3,0.4c-0.1,0.2-0.2,0.4-0.3,0.6
				c-0.1,0.3-0.2,0.5-0.3,0.7c-0.1,0.2-0.2,0.4-0.4,0.5s-0.3,0.2-0.5,0.3C53.4,210.1,53.2,210.1,53,210.1z"/>
			<path fill="#FFFFFF" d="M51.1,213.6c0-0.3,0.1-0.6,0.2-0.9c0.1-0.3,0.3-0.5,0.5-0.7c0.2-0.2,0.5-0.3,0.8-0.4
				c0.3-0.1,0.7-0.2,1.1-0.2c0.4,0,0.8,0,1.1,0.1s0.6,0.2,0.8,0.4c0.2,0.2,0.4,0.4,0.5,0.6c0.1,0.2,0.2,0.5,0.2,0.8
				c0,0.3-0.1,0.5-0.2,0.8s-0.3,0.4-0.4,0.6c-0.2,0.2-0.4,0.3-0.7,0.4c-0.3,0.1-0.6,0.1-0.9,0.1h-0.5v-3c-0.6,0-1,0.1-1.2,0.4
				c-0.3,0.2-0.4,0.6-0.4,1c0,0.1,0,0.3,0,0.4c0,0.1,0,0.3,0.1,0.4c0,0.1,0.1,0.2,0.1,0.3c0,0.1,0.1,0.2,0.1,0.3h-0.7
				c-0.1-0.1-0.1-0.2-0.1-0.3c0-0.1-0.1-0.2-0.1-0.3c0-0.1,0-0.2-0.1-0.4C51.2,213.9,51.1,213.8,51.1,213.6z M55.5,213.4
				c0-0.3-0.1-0.6-0.3-0.8c-0.2-0.2-0.6-0.3-1-0.3v2.2c0.2,0,0.4,0,0.5-0.1c0.2,0,0.3-0.1,0.4-0.2c0.1-0.1,0.2-0.2,0.3-0.3
				S55.5,213.6,55.5,213.4z"/>
			<path fill="#FFFFFF" d="M51.2,220h3.1c0.4,0,0.7-0.1,0.9-0.2c0.2-0.2,0.3-0.4,0.3-0.7c0-0.2,0-0.4-0.1-0.6
				c-0.1-0.2-0.2-0.3-0.3-0.4c-0.1-0.1-0.3-0.2-0.5-0.2c-0.2,0-0.5-0.1-0.7-0.1h-2.5V217h4.8v0.7l-0.7,0.1v0
				c0.1,0.1,0.2,0.2,0.3,0.3c0.1,0.1,0.2,0.2,0.2,0.3c0.1,0.1,0.1,0.2,0.1,0.4s0,0.3,0,0.4c0,0.5-0.1,0.9-0.4,1.2
				c-0.3,0.3-0.7,0.4-1.3,0.4h-3.2V220z"/>
			<path fill="#FFFFFF" d="M52.6,225.6c-0.2,0-0.4,0-0.6-0.1s-0.3-0.2-0.4-0.4c-0.1-0.2-0.2-0.4-0.3-0.6c-0.1-0.2-0.1-0.5-0.1-0.8
				c0-0.3,0-0.6,0.1-0.8c0.1-0.2,0.1-0.4,0.2-0.6h0.7c0,0.1-0.1,0.2-0.1,0.3c0,0.1-0.1,0.2-0.1,0.4s-0.1,0.2-0.1,0.4
				c0,0.1,0,0.3,0,0.4c0,0.2,0,0.4,0,0.5c0,0.1,0.1,0.2,0.1,0.3c0.1,0.1,0.1,0.1,0.2,0.2c0.1,0,0.2,0.1,0.3,0.1c0.1,0,0.2,0,0.2,0
				c0.1,0,0.1-0.1,0.2-0.2c0.1-0.1,0.1-0.2,0.2-0.3s0.2-0.3,0.2-0.5s0.2-0.4,0.3-0.6c0.1-0.2,0.2-0.3,0.3-0.4s0.2-0.2,0.4-0.3
				c0.1-0.1,0.3-0.1,0.5-0.1c0.2,0,0.4,0,0.5,0.1c0.2,0.1,0.3,0.2,0.4,0.3c0.1,0.1,0.2,0.3,0.2,0.5c0.1,0.2,0.1,0.4,0.1,0.7
				c0,0.3,0,0.5-0.1,0.8c-0.1,0.2-0.1,0.5-0.2,0.7l-0.6-0.3c0.1-0.2,0.2-0.4,0.2-0.6c0.1-0.2,0.1-0.4,0.1-0.6c0-0.3,0-0.5-0.1-0.7
				c-0.1-0.1-0.2-0.2-0.4-0.2c-0.1,0-0.2,0-0.3,0.1c-0.1,0-0.1,0.1-0.2,0.2s-0.1,0.2-0.2,0.3c-0.1,0.1-0.1,0.3-0.2,0.5
				c-0.1,0.2-0.2,0.4-0.3,0.6c-0.1,0.2-0.2,0.3-0.3,0.4c-0.1,0.1-0.2,0.2-0.4,0.3S52.8,225.6,52.6,225.6z"/>
			<path fill="#FFFFFF" d="M53.7,231.2c-0.4,0-0.8,0-1.1-0.1c-0.3-0.1-0.6-0.2-0.8-0.4c-0.2-0.2-0.4-0.4-0.5-0.7s-0.2-0.6-0.2-0.9
				c0-0.3,0.1-0.6,0.2-0.8s0.3-0.5,0.5-0.7c0.2-0.2,0.5-0.3,0.8-0.4c0.3-0.1,0.7-0.2,1.1-0.2c0.4,0,0.8,0,1.1,0.1
				c0.3,0.1,0.6,0.2,0.8,0.4s0.4,0.4,0.5,0.7c0.1,0.3,0.2,0.6,0.2,0.9c0,0.3-0.1,0.6-0.2,0.8c-0.1,0.3-0.3,0.5-0.5,0.7
				c-0.2,0.2-0.5,0.3-0.8,0.4C54.4,231.1,54.1,231.2,53.7,231.2z M53.7,227.8c-0.6,0-1.1,0.1-1.4,0.3c-0.3,0.2-0.5,0.5-0.5,1
				s0.2,0.8,0.5,1c0.3,0.2,0.8,0.3,1.4,0.3c0.6,0,1.1-0.1,1.4-0.3c0.3-0.2,0.5-0.5,0.5-1s-0.2-0.8-0.5-1
				C54.7,227.9,54.3,227.8,53.7,227.8z"/>
			<path fill="#FFFFFF" d="M56.1,235c0,0.1,0,0.2,0,0.3c0,0.1,0,0.2,0,0.3l-0.7-0.1c0-0.1,0-0.2,0-0.3c0-0.1,0-0.2,0-0.2
				c0-0.2,0-0.4-0.1-0.5c-0.1-0.2-0.2-0.3-0.3-0.4c-0.1-0.1-0.3-0.2-0.5-0.3c-0.2-0.1-0.4-0.1-0.6-0.1h-2.6v-0.8h4.8v0.7l-0.9,0.1v0
				c0.1,0.1,0.2,0.2,0.4,0.2c0.1,0.1,0.2,0.2,0.3,0.3c0.1,0.1,0.2,0.2,0.2,0.3C56.1,234.7,56.1,234.8,56.1,235z"/>
		</g>
		<g>
			<rect x="18.7" y="71.7" fill="none" width="15.6" height="173.4"/>
			<path fill="#FFFFFF" d="M34,74.1v0.6l-2.5,0.7c-0.1,0-0.2,0.1-0.3,0.1s-0.2,0.1-0.3,0.1s-0.2,0-0.3,0.1s-0.2,0-0.2,0
				c0.1,0,0.2,0,0.2,0s0.2,0,0.3,0s0.2,0,0.3,0.1s0.2,0,0.3,0.1l2.6,0.6v0.6l-4.3-1.1v-0.6l2.7-0.7c0.1,0,0.2-0.1,0.3-0.1
				s0.2,0,0.3-0.1c0.1,0,0.2,0,0.3-0.1c-0.1,0-0.2,0-0.3-0.1c-0.1,0-0.2,0-0.3-0.1s-0.2-0.1-0.3-0.1l-2.7-0.7v-0.6l4.3-1.1v0.6
				L31.4,73c-0.1,0-0.2,0-0.3,0.1s-0.2,0-0.3,0.1s-0.2,0-0.3,0s-0.2,0-0.2,0c0.1,0,0.2,0,0.3,0s0.2,0,0.3,0.1s0.2,0,0.3,0.1
				s0.2,0,0.3,0.1L34,74.1z"/>
			<path fill="#FFFFFF" d="M29.8,78.1v-0.5H33v0.5H29.8z M33.8,77.5c0.1,0,0.2,0,0.3,0.1s0.1,0.1,0.1,0.2c0,0,0,0.1,0,0.1
				s0,0.1-0.1,0.1S34,78.1,34,78.1s-0.1,0-0.2,0c-0.1,0-0.2,0-0.3-0.1s-0.1-0.1-0.1-0.2c0-0.1,0-0.2,0.1-0.2S33.7,77.5,33.8,77.5z"
				/>
			<path fill="#FFFFFF" d="M33,80.6c0,0.1,0,0.1,0,0.2s0,0.1,0,0.2l-0.5-0.1c0-0.1,0-0.1,0-0.2s0-0.1,0-0.2c0-0.1,0-0.2-0.1-0.3
				s-0.1-0.2-0.2-0.3s-0.2-0.1-0.3-0.2s-0.3-0.1-0.4-0.1h-1.7v-0.5H33v0.4l-0.6,0.1v0c0.1,0,0.2,0.1,0.2,0.2s0.1,0.1,0.2,0.2
				s0.1,0.1,0.1,0.2S33,80.5,33,80.6z"/>
			<path fill="#FFFFFF" d="M29.8,82.2v-0.5H33v0.5H29.8z M33.8,81.6c0.1,0,0.2,0,0.3,0.1s0.1,0.1,0.1,0.2c0,0,0,0.1,0,0.1
				s0,0.1-0.1,0.1S34,82.2,34,82.2s-0.1,0-0.2,0c-0.1,0-0.2,0-0.3-0.1s-0.1-0.1-0.1-0.2c0-0.1,0-0.2,0.1-0.2S33.7,81.6,33.8,81.6z"
				/>
			<path fill="#FFFFFF" d="M29.8,85.3h2.1c0.3,0,0.4-0.1,0.6-0.2s0.2-0.3,0.2-0.5c0-0.2,0-0.3-0.1-0.4S32.4,84,32.3,84
				s-0.2-0.1-0.4-0.1s-0.3,0-0.5,0h-1.7v-0.5H33v0.4l-0.4,0.1v0c0.1,0,0.2,0.1,0.2,0.2s0.1,0.1,0.2,0.2s0.1,0.2,0.1,0.3s0,0.2,0,0.3
				c0,0.4-0.1,0.6-0.3,0.8s-0.5,0.3-0.9,0.3h-2.1V85.3z"/>
			<path fill="#FFFFFF" d="M33,89.3h-0.3l-0.1-0.6c-0.1,0.1-0.2,0.1-0.3,0.1s-0.2,0.1-0.4,0.1c-0.1,0-0.3,0-0.4-0.1
				s-0.2-0.1-0.3-0.2S31,88.5,31,88.3s-0.1-0.3-0.1-0.5c0,0,0-0.1,0-0.1s0-0.1,0-0.1c0,0,0-0.1-0.1-0.1s-0.1-0.1-0.1-0.1
				s-0.1,0-0.1-0.1s-0.1,0-0.1,0c-0.1,0-0.1,0-0.1,0s-0.1,0.1-0.1,0.1s0,0.1,0,0.1s0,0.1,0,0.2v0.5c0,0.2,0,0.3-0.1,0.5
				S30.1,89,30,89.1s-0.2,0.1-0.3,0.2s-0.2,0.1-0.3,0.1c-0.2,0-0.3,0-0.5-0.1s-0.3-0.2-0.3-0.3s-0.2-0.3-0.2-0.5s-0.1-0.4-0.1-0.7
				c0-0.2,0-0.4,0.1-0.5s0.1-0.3,0.2-0.4s0.2-0.2,0.3-0.2s0.2-0.1,0.4-0.1c0.1,0,0.2,0,0.3,0.1s0.2,0.1,0.2,0.2s0.1,0.1,0.2,0.2
				s0.1,0.2,0.1,0.3c0-0.1,0.1-0.1,0.2-0.2s0.2-0.1,0.3-0.1c0.1,0,0.2,0,0.3,0.1s0.2,0.2,0.3,0.3c0-0.1,0.1-0.2,0.1-0.2
				s0.1-0.1,0.2-0.2s0.2-0.1,0.3-0.1s0.2,0,0.3,0c0.2,0,0.3,0,0.5,0.1s0.3,0.1,0.3,0.2s0.2,0.2,0.2,0.4s0.1,0.3,0.1,0.5
				c0,0.1,0,0.1,0,0.2s0,0.1,0,0.2V89.3z M29.2,86.9c-0.1,0-0.1,0-0.2,0s-0.1,0.1-0.2,0.1s-0.1,0.1-0.1,0.2s0,0.2,0,0.4
				c0,0.4,0.1,0.6,0.2,0.8s0.3,0.3,0.5,0.3c0.1,0,0.2,0,0.2,0s0.1-0.1,0.1-0.1s0.1-0.1,0.1-0.2s0-0.2,0-0.3v-0.5c0-0.1,0-0.1,0-0.2
				s0-0.1-0.1-0.2S29.6,87,29.5,87S29.4,86.9,29.2,86.9z M31.9,87.2c-0.2,0-0.4,0.1-0.5,0.2s-0.2,0.3-0.2,0.4c0,0.2,0.1,0.3,0.2,0.4
				s0.3,0.2,0.5,0.2c0.2,0,0.4-0.1,0.5-0.2s0.2-0.3,0.2-0.4c0-0.2-0.1-0.3-0.2-0.4S32.2,87.2,31.9,87.2z"/>
			<path fill="#FFFFFF" d="M30.1,89.9c0.1,0,0.1,0,0.2,0s0.1,0,0.1,0.1s0.1,0.1,0.1,0.1s0,0.1,0,0.1c0,0.1,0,0.1,0,0.1
				s0,0.1-0.1,0.1s-0.1,0.1-0.1,0.1s-0.1,0-0.2,0c-0.1,0-0.1,0-0.2,0s-0.1,0-0.1-0.1s-0.1-0.1-0.1-0.1s0-0.1,0-0.1
				c0-0.1,0-0.1,0-0.1s0-0.1,0.1-0.1s0.1-0.1,0.1-0.1S30,89.9,30.1,89.9z M32.6,89.9c0.1,0,0.1,0,0.2,0s0.1,0,0.1,0.1
				s0.1,0.1,0.1,0.1s0,0.1,0,0.1c0,0.1,0,0.1,0,0.1s0,0.1-0.1,0.1s-0.1,0.1-0.1,0.1s-0.1,0-0.2,0c-0.1,0-0.1,0-0.2,0s-0.1,0-0.1-0.1
				s-0.1-0.1-0.1-0.1s0-0.1,0-0.1c0-0.1,0-0.1,0-0.1s0-0.1,0.1-0.1s0.1-0.1,0.1-0.1S32.6,89.9,32.6,89.9z"/>
			<path fill="#FFFFFF" d="M29.8,107.1l1.8-0.5c0,0,0.1,0,0.1,0s0.1,0,0.1,0s0.1,0,0.1,0s0.1,0,0.1,0c0.1,0,0.2-0.1,0.4-0.1v0
				c-0.1,0-0.2-0.1-0.4-0.1c-0.1,0-0.2,0-0.3-0.1s-0.2,0-0.3-0.1l-1.8-0.5V105l3.2-0.8v0.6l-1.7,0.4c-0.1,0-0.2,0-0.3,0.1
				s-0.2,0-0.3,0.1s-0.2,0-0.3,0s-0.2,0-0.2,0v0c0.1,0,0.1,0,0.2,0s0.2,0,0.3,0.1c0.1,0,0.2,0,0.3,0.1s0.2,0,0.2,0.1l1.8,0.5v0.6
				l-1.8,0.5c-0.1,0-0.1,0-0.2,0.1c-0.1,0-0.2,0-0.3,0.1s-0.2,0-0.3,0.1s-0.2,0-0.2,0v0c0.1,0,0.1,0,0.2,0s0.2,0,0.3,0
				s0.2,0,0.3,0.1c0.1,0,0.2,0,0.3,0.1L33,108v0.5l-3.2-0.8V107.1z"/>
			<path fill="#FFFFFF" d="M29.8,111.2h2.1c0.3,0,0.4-0.1,0.6-0.2c0.1-0.1,0.2-0.3,0.2-0.5c0-0.2,0-0.3-0.1-0.4s-0.1-0.2-0.2-0.3
				c-0.1-0.1-0.2-0.1-0.4-0.1c-0.1,0-0.3,0-0.5,0h-1.7v-0.5h4.6v0.5H33l-0.4,0v0c0.1,0,0.2,0.1,0.2,0.2c0.1,0.1,0.1,0.1,0.2,0.2
				s0.1,0.2,0.1,0.3s0,0.2,0,0.3c0,0.4-0.1,0.6-0.3,0.8s-0.5,0.3-0.9,0.3h-2.1V111.2z"/>
			<path fill="#FFFFFF" d="M29.8,113.3v-0.5H33v0.5H29.8z M33.8,112.7c0.1,0,0.2,0,0.3,0.1c0.1,0.1,0.1,0.1,0.1,0.2c0,0,0,0.1,0,0.1
				c0,0,0,0.1-0.1,0.1s-0.1,0.1-0.1,0.1c0,0-0.1,0-0.2,0c-0.1,0-0.2,0-0.3-0.1c-0.1-0.1-0.1-0.1-0.1-0.2c0-0.1,0-0.2,0.1-0.2
				C33.6,112.7,33.7,112.7,33.8,112.7z"/>
			<path fill="#FFFFFF" d="M30.1,115.3c0,0,0,0.1,0,0.1c0,0,0,0.1,0,0.1s0,0.1,0,0.1c0,0,0,0.1,0,0.1h-0.4c0,0,0-0.1,0-0.1
				s0-0.1,0-0.1s0-0.1,0-0.1s0-0.1,0-0.1c0-0.1,0-0.2,0-0.3s0.1-0.2,0.2-0.3c0.1-0.1,0.2-0.1,0.3-0.2s0.3-0.1,0.5-0.1h1.9V114h0.2
				l0.2,0.5l0.7,0.2v0.3H33v0.8h-0.4v-0.8h-1.9c-0.2,0-0.3,0-0.4,0.1C30.2,115.1,30.1,115.2,30.1,115.3z"/>
			<path fill="#FFFFFF" d="M29.7,117.7c0-0.2,0-0.4,0.1-0.6s0.2-0.3,0.3-0.5c0.1-0.1,0.3-0.2,0.5-0.3s0.4-0.1,0.7-0.1
				c0.3,0,0.5,0,0.7,0.1s0.4,0.2,0.5,0.3s0.3,0.3,0.3,0.4c0.1,0.2,0.1,0.3,0.1,0.5c0,0.2,0,0.4-0.1,0.5s-0.2,0.3-0.3,0.4
				s-0.3,0.2-0.5,0.2s-0.4,0.1-0.6,0.1h-0.3v-2c-0.4,0-0.7,0.1-0.8,0.2c-0.2,0.1-0.3,0.4-0.3,0.7c0,0.1,0,0.2,0,0.3
				c0,0.1,0,0.2,0,0.2c0,0.1,0,0.2,0.1,0.2s0.1,0.1,0.1,0.2h-0.5c0-0.1-0.1-0.2-0.1-0.2s0-0.2-0.1-0.2c0-0.1,0-0.2,0-0.2
				C29.7,117.9,29.7,117.8,29.7,117.7z M32.6,117.6c0-0.2-0.1-0.4-0.2-0.5c-0.2-0.1-0.4-0.2-0.7-0.2v1.4c0.1,0,0.3,0,0.4,0
				c0.1,0,0.2-0.1,0.3-0.1c0.1-0.1,0.1-0.1,0.2-0.2S32.6,117.7,32.6,117.6z"/>
			<path fill="#FFFFFF" d="M30.1,119.7c0.1,0,0.1,0,0.2,0s0.1,0,0.1,0.1s0.1,0.1,0.1,0.1s0,0.1,0,0.1c0,0.1,0,0.1,0,0.1
				s0,0.1-0.1,0.1s-0.1,0.1-0.1,0.1s-0.1,0-0.2,0c-0.1,0-0.1,0-0.2,0s-0.1,0-0.1-0.1s-0.1-0.1-0.1-0.1s0-0.1,0-0.1
				c0-0.1,0-0.1,0-0.1s0-0.1,0.1-0.1s0.1-0.1,0.1-0.1S30,119.7,30.1,119.7z M32.6,119.7c0.1,0,0.1,0,0.2,0s0.1,0,0.1,0.1
				s0.1,0.1,0.1,0.1s0,0.1,0,0.1c0,0.1,0,0.1,0,0.1s0,0.1-0.1,0.1s-0.1,0.1-0.1,0.1s-0.1,0-0.2,0c-0.1,0-0.1,0-0.2,0s-0.1,0-0.1-0.1
				s-0.1-0.1-0.1-0.1s0-0.1,0-0.1c0-0.1,0-0.1,0-0.1s0-0.1,0.1-0.1s0.1-0.1,0.1-0.1S32.6,119.7,32.6,119.7z"/>
			<path fill="#FFFFFF" d="M32,137.8v1.4h-2.1c0-0.1-0.1-0.2-0.1-0.3s-0.1-0.2-0.1-0.3s0-0.2,0-0.4s0-0.3,0-0.4
				c0-0.3,0.1-0.6,0.2-0.8s0.2-0.4,0.4-0.6s0.4-0.3,0.7-0.4s0.6-0.1,0.9-0.1c0.3,0,0.6,0,0.9,0.1c0.3,0.1,0.5,0.2,0.7,0.4
				s0.3,0.4,0.4,0.7c0.1,0.3,0.2,0.6,0.2,0.9c0,0.2,0,0.4-0.1,0.6s-0.1,0.4-0.2,0.6l-0.5-0.2c0-0.1,0.1-0.1,0.1-0.2s0.1-0.2,0.1-0.3
				s0-0.2,0.1-0.3c0-0.1,0-0.2,0-0.3c0-0.2,0-0.4-0.1-0.6s-0.2-0.3-0.3-0.5s-0.3-0.2-0.5-0.3s-0.5-0.1-0.7-0.1c-0.3,0-0.5,0-0.7,0.1
				s-0.4,0.1-0.5,0.3s-0.3,0.3-0.4,0.5s-0.1,0.4-0.1,0.7c0,0.1,0,0.2,0,0.2s0,0.1,0,0.2s0,0.1,0,0.2s0,0.1,0,0.2h1.3v-0.9H32z"/>
			<path fill="#FFFFFF" d="M29.8,143.5v-0.6l3.5-2.1v0c-0.2,0-0.3,0-0.4,0c-0.1,0-0.3,0-0.4,0c-0.1,0-0.3,0-0.4,0h-2.3v-0.5H34v0.6
				l-3.5,2.1v0c0.1,0,0.3,0,0.4,0c0.1,0,0.1,0,0.2,0c0.1,0,0.1,0,0.2,0c0.1,0,0.1,0,0.2,0c0.1,0,0.1,0,0.2,0H34v0.5H29.8z"/>
			<path fill="#FFFFFF" d="M31.9,147.8c-0.4,0-0.7,0-1-0.1s-0.5-0.2-0.7-0.4s-0.3-0.4-0.4-0.7s-0.1-0.6-0.1-0.9v-1.1H34v1.2
				c0,0.3,0,0.6-0.1,0.8s-0.2,0.4-0.4,0.6s-0.4,0.3-0.7,0.4C32.6,147.8,32.3,147.8,31.9,147.8z M31.9,147.3c0.3,0,0.5,0,0.7-0.1
				s0.4-0.2,0.5-0.3s0.2-0.3,0.3-0.5s0.1-0.4,0.1-0.6v-0.6h-3.3v0.5c0,0.5,0.1,0.9,0.4,1.2S31.4,147.3,31.9,147.3z"/>
			<path fill="#FFFFFF" d="M33,164.5v0.6l-1.8,0.6c-0.1,0-0.2,0.1-0.2,0.1c-0.1,0-0.2,0.1-0.3,0.1s-0.2,0-0.2,0.1s-0.2,0-0.2,0v0
				c0,0,0.1,0,0.2,0s0.2,0,0.3,0.1c0.1,0,0.2,0.1,0.3,0.1c0.1,0,0.2,0.1,0.2,0.1l1.8,0.6v0.6l-3.6-1.3c-0.2-0.1-0.3-0.1-0.4-0.2
				c-0.1-0.1-0.2-0.1-0.3-0.2s-0.2-0.2-0.2-0.3s-0.1-0.2-0.1-0.4c0-0.1,0-0.2,0-0.3s0-0.1,0-0.2h0.4c0,0,0,0.1,0,0.2s0,0.1,0,0.2
				c0,0.1,0,0.2,0,0.2s0.1,0.1,0.1,0.2s0.1,0.1,0.2,0.1s0.1,0.1,0.2,0.1l0.5,0.2L33,164.5z"/>
			<path fill="#FFFFFF" d="M29.7,169.2c0-0.2,0-0.4,0.1-0.6s0.2-0.3,0.3-0.5c0.1-0.1,0.3-0.2,0.5-0.3s0.4-0.1,0.7-0.1
				c0.3,0,0.5,0,0.7,0.1s0.4,0.2,0.5,0.3s0.3,0.3,0.3,0.4c0.1,0.2,0.1,0.3,0.1,0.5c0,0.2,0,0.4-0.1,0.5s-0.2,0.3-0.3,0.4
				s-0.3,0.2-0.5,0.2s-0.4,0.1-0.6,0.1h-0.3v-2c-0.4,0-0.7,0.1-0.8,0.2c-0.2,0.1-0.3,0.4-0.3,0.7c0,0.1,0,0.2,0,0.3
				c0,0.1,0,0.2,0,0.2c0,0.1,0,0.2,0.1,0.2s0.1,0.1,0.1,0.2h-0.5c0-0.1-0.1-0.2-0.1-0.2s0-0.2-0.1-0.2c0-0.1,0-0.2,0-0.2
				C29.7,169.4,29.7,169.3,29.7,169.2z M32.6,169.1c0-0.2-0.1-0.4-0.2-0.5c-0.2-0.1-0.4-0.2-0.7-0.2v1.4c0.1,0,0.3,0,0.4,0
				c0.1,0,0.2-0.1,0.3-0.1c0.1-0.1,0.1-0.1,0.2-0.2S32.6,169.2,32.6,169.1z"/>
			<path fill="#FFFFFF" d="M29.8,171.8v-0.5h4.6v0.5H29.8z"/>
			<path fill="#FFFFFF" d="M29.8,173.4v-0.5h4.6v0.5H29.8z"/>
			<path fill="#FFFFFF" d="M31.4,177.1c-0.3,0-0.5,0-0.7-0.1s-0.4-0.2-0.5-0.3s-0.2-0.3-0.3-0.4s-0.1-0.4-0.1-0.6
				c0-0.2,0-0.4,0.1-0.6s0.2-0.3,0.3-0.4s0.3-0.2,0.5-0.3c0.2-0.1,0.4-0.1,0.7-0.1c0.3,0,0.5,0,0.7,0.1c0.2,0.1,0.4,0.2,0.5,0.3
				s0.2,0.3,0.3,0.4s0.1,0.4,0.1,0.6c0,0.2,0,0.4-0.1,0.6s-0.2,0.3-0.3,0.4c-0.1,0.1-0.3,0.2-0.5,0.3S31.6,177.1,31.4,177.1z
				 M31.4,174.8c-0.4,0-0.7,0.1-0.9,0.2s-0.3,0.4-0.3,0.7s0.1,0.5,0.3,0.6c0.2,0.1,0.5,0.2,0.9,0.2s0.7-0.1,0.9-0.2
				c0.2-0.1,0.3-0.4,0.3-0.7s-0.1-0.5-0.3-0.6C32.1,174.9,31.8,174.8,31.4,174.8z"/>
			<path fill="#FFFFFF" d="M29.8,180.4l1.8-0.5c0,0,0.1,0,0.1,0s0.1,0,0.1,0s0.1,0,0.1,0s0.1,0,0.1,0c0.1,0,0.2-0.1,0.4-0.1v0
				c-0.1,0-0.2-0.1-0.4-0.1c-0.1,0-0.2,0-0.3-0.1s-0.2,0-0.3-0.1l-1.8-0.5v-0.6l3.2-0.8v0.6l-1.7,0.4c-0.1,0-0.2,0-0.3,0.1
				s-0.2,0-0.3,0.1s-0.2,0-0.3,0s-0.2,0-0.2,0v0c0.1,0,0.1,0,0.2,0s0.2,0,0.3,0.1c0.1,0,0.2,0,0.3,0.1s0.2,0,0.2,0.1l1.8,0.5v0.6
				l-1.8,0.5c-0.1,0-0.1,0-0.2,0.1c-0.1,0-0.2,0-0.3,0.1s-0.2,0-0.3,0.1s-0.2,0-0.2,0v0c0.1,0,0.1,0,0.2,0s0.2,0,0.3,0
				s0.2,0,0.3,0.1c0.1,0,0.2,0,0.3,0.1l1.7,0.4v0.5l-3.2-0.8V180.4z"/>
			<path fill="#FFFFFF" d="M30.1,182.4c0.1,0,0.1,0,0.2,0s0.1,0,0.1,0.1s0.1,0.1,0.1,0.1s0,0.1,0,0.1c0,0.1,0,0.1,0,0.1
				s0,0.1-0.1,0.1s-0.1,0.1-0.1,0.1s-0.1,0-0.2,0c-0.1,0-0.1,0-0.2,0s-0.1,0-0.1-0.1s-0.1-0.1-0.1-0.1s0-0.1,0-0.1
				c0-0.1,0-0.1,0-0.1s0-0.1,0.1-0.1s0.1-0.1,0.1-0.1S30,182.4,30.1,182.4z M32.6,182.4c0.1,0,0.1,0,0.2,0s0.1,0,0.1,0.1
				s0.1,0.1,0.1,0.1s0,0.1,0,0.1c0,0.1,0,0.1,0,0.1s0,0.1-0.1,0.1s-0.1,0.1-0.1,0.1s-0.1,0-0.2,0c-0.1,0-0.1,0-0.2,0s-0.1,0-0.1-0.1
				s-0.1-0.1-0.1-0.1s0-0.1,0-0.1c0-0.1,0-0.1,0-0.1s0-0.1,0.1-0.1s0.1-0.1,0.1-0.1S32.6,182.4,32.6,182.4z"/>
			<path fill="#FFFFFF" d="M31.4,188.4c-0.3,0-0.5,0-0.7-0.1s-0.4-0.2-0.5-0.3s-0.2-0.3-0.3-0.4s-0.1-0.4-0.1-0.6
				c0-0.2,0-0.4,0.1-0.6s0.2-0.3,0.3-0.4s0.3-0.2,0.5-0.3c0.2-0.1,0.4-0.1,0.7-0.1c0.3,0,0.5,0,0.7,0.1c0.2,0.1,0.4,0.2,0.5,0.3
				s0.2,0.3,0.3,0.4s0.1,0.4,0.1,0.6c0,0.2,0,0.4-0.1,0.6s-0.2,0.3-0.3,0.4c-0.1,0.1-0.3,0.2-0.5,0.3S31.6,188.4,31.4,188.4z
				 M31.4,186.2c-0.4,0-0.7,0.1-0.9,0.2s-0.3,0.4-0.3,0.7s0.1,0.5,0.3,0.6c0.2,0.1,0.5,0.2,0.9,0.2s0.7-0.1,0.9-0.2
				c0.2-0.1,0.3-0.4,0.3-0.7s-0.1-0.5-0.3-0.6C32.1,186.2,31.8,186.2,31.4,186.2z"/>
			<path fill="#FFFFFF" d="M29.8,191.4l0.4-0.1v0c-0.1,0-0.2-0.1-0.2-0.2c-0.1-0.1-0.1-0.1-0.2-0.2s-0.1-0.2-0.1-0.3s0-0.2,0-0.3
				c0-0.2,0-0.3,0.1-0.5s0.1-0.2,0.2-0.3s0.2-0.2,0.4-0.2s0.3-0.1,0.5-0.1H33v0.5h-2.1c-0.3,0-0.4,0.1-0.6,0.2s-0.2,0.3-0.2,0.5
				c0,0.2,0,0.3,0.1,0.4s0.1,0.2,0.2,0.3s0.2,0.1,0.4,0.1s0.3,0,0.5,0H33v0.5h-3.2V191.4z"/>
			<path fill="#FFFFFF" d="M30.1,193.9c0,0,0,0.1,0,0.1c0,0,0,0.1,0,0.1s0,0.1,0,0.1c0,0,0,0.1,0,0.1h-0.4c0,0,0-0.1,0-0.1
				s0-0.1,0-0.1s0-0.1,0-0.1s0-0.1,0-0.1c0-0.1,0-0.2,0-0.3s0.1-0.2,0.2-0.3c0.1-0.1,0.2-0.1,0.3-0.2s0.3-0.1,0.5-0.1h1.9v-0.5h0.2
				l0.2,0.5l0.7,0.2v0.3H33v0.8h-0.4v-0.8h-1.9c-0.2,0-0.3,0-0.4,0.1C30.2,193.6,30.1,193.7,30.1,193.9z"/>
			<path fill="#FFFFFF" d="M29.7,196.5c0-0.1,0-0.2,0-0.3s0.1-0.2,0.1-0.3c0-0.1,0.1-0.1,0.1-0.2c0.1-0.1,0.1-0.1,0.2-0.2v0
				c-0.1,0-0.1,0-0.2,0c-0.1,0-0.1,0-0.2,0s-0.1,0-0.1,0h-1.4V195H33v0.4l-0.4,0.1v0c0.1,0,0.1,0.1,0.2,0.2s0.1,0.1,0.2,0.2
				s0.1,0.2,0.1,0.3s0,0.2,0,0.3c0,0.2,0,0.4-0.1,0.5s-0.2,0.3-0.3,0.4c-0.1,0.1-0.3,0.2-0.5,0.2s-0.4,0.1-0.7,0.1
				c-0.3,0-0.5,0-0.7-0.1s-0.4-0.1-0.5-0.2c-0.1-0.1-0.2-0.2-0.3-0.4S29.7,196.6,29.7,196.5z M32.6,196.4c0-0.1,0-0.3-0.1-0.4
				c0-0.1-0.1-0.2-0.2-0.3s-0.2-0.1-0.3-0.1s-0.3,0-0.5-0.1h-0.1c-0.2,0-0.4,0-0.5,0c-0.2,0-0.3,0.1-0.4,0.1s-0.2,0.1-0.2,0.3
				s-0.1,0.2-0.1,0.4c0,0.3,0.1,0.5,0.3,0.6s0.5,0.2,0.9,0.2c0.4,0,0.7-0.1,0.9-0.2S32.6,196.6,32.6,196.4z"/>
			<path fill="#FFFFFF" d="M29.8,200.7l0.4-0.1v0c-0.1,0-0.2-0.1-0.2-0.2c-0.1-0.1-0.1-0.1-0.2-0.2s-0.1-0.2-0.1-0.3s0-0.2,0-0.3
				c0-0.2,0-0.3,0.1-0.5s0.1-0.2,0.2-0.3s0.2-0.2,0.4-0.2s0.3-0.1,0.5-0.1H33v0.5h-2.1c-0.3,0-0.4,0.1-0.6,0.2s-0.2,0.3-0.2,0.5
				c0,0.2,0,0.3,0.1,0.4s0.1,0.2,0.2,0.3s0.2,0.1,0.4,0.1s0.3,0,0.5,0H33v0.5h-3.2V200.7z"/>
			<path fill="#FFFFFF" d="M30.1,203.1c0,0,0,0.1,0,0.1c0,0,0,0.1,0,0.1s0,0.1,0,0.1c0,0,0,0.1,0,0.1h-0.4c0,0,0-0.1,0-0.1
				s0-0.1,0-0.1s0-0.1,0-0.1s0-0.1,0-0.1c0-0.1,0-0.2,0-0.3s0.1-0.2,0.2-0.3c0.1-0.1,0.2-0.1,0.3-0.2s0.3-0.1,0.5-0.1h1.9v-0.5h0.2
				l0.2,0.5l0.7,0.2v0.3H33v0.8h-0.4v-0.8h-1.9c-0.2,0-0.3,0-0.4,0.1C30.2,202.9,30.1,203,30.1,203.1z"/>
			<path fill="#FFFFFF" d="M29.8,209.7h2.1c0.3,0,0.4,0,0.6-0.1s0.2-0.2,0.2-0.5c0-0.1,0-0.3-0.1-0.4s-0.1-0.2-0.2-0.2
				c-0.1-0.1-0.2-0.1-0.3-0.1s-0.3,0-0.5,0h-1.8v-0.5h2.1c0.3,0,0.4,0,0.6-0.1c0.1-0.1,0.2-0.2,0.2-0.5c0-0.2,0-0.3-0.1-0.4
				s-0.1-0.2-0.2-0.2c-0.1-0.1-0.2-0.1-0.4-0.1c-0.1,0-0.3,0-0.5,0h-1.7v-0.5H33v0.4l-0.4,0.1v0c0.1,0,0.2,0.1,0.2,0.2
				s0.1,0.1,0.2,0.2S33,207,33,207s0,0.2,0,0.3c0,0.2,0,0.4-0.1,0.6c-0.1,0.2-0.2,0.3-0.4,0.3v0c0.1,0.1,0.2,0.1,0.2,0.2
				s0.1,0.2,0.2,0.2c0,0.1,0.1,0.2,0.1,0.3s0,0.2,0,0.3c0,0.3-0.1,0.6-0.3,0.8c-0.2,0.2-0.5,0.3-0.9,0.3h-2.1V209.7z"/>
			<path fill="#FFFFFF" d="M31.4,213.9c-0.3,0-0.5,0-0.7-0.1s-0.4-0.2-0.5-0.3s-0.2-0.3-0.3-0.4s-0.1-0.4-0.1-0.6
				c0-0.2,0-0.4,0.1-0.6s0.2-0.3,0.3-0.4s0.3-0.2,0.5-0.3c0.2-0.1,0.4-0.1,0.7-0.1c0.3,0,0.5,0,0.7,0.1c0.2,0.1,0.4,0.2,0.5,0.3
				s0.2,0.3,0.3,0.4s0.1,0.4,0.1,0.6c0,0.2,0,0.4-0.1,0.6s-0.2,0.3-0.3,0.4c-0.1,0.1-0.3,0.2-0.5,0.3S31.6,213.9,31.4,213.9z
				 M31.4,211.7c-0.4,0-0.7,0.1-0.9,0.2s-0.3,0.4-0.3,0.7s0.1,0.5,0.3,0.6c0.2,0.1,0.5,0.2,0.9,0.2s0.7-0.1,0.9-0.2
				c0.2-0.1,0.3-0.4,0.3-0.7s-0.1-0.5-0.3-0.6C32.1,211.8,31.8,211.7,31.4,211.7z"/>
			<path fill="#FFFFFF" d="M29.8,215.4v-0.5H33v0.5H29.8z M33.8,214.8c0.1,0,0.2,0,0.3,0.1c0.1,0.1,0.1,0.1,0.1,0.2c0,0,0,0.1,0,0.1
				c0,0,0,0.1-0.1,0.1s-0.1,0.1-0.1,0.1c0,0-0.1,0-0.2,0c-0.1,0-0.2,0-0.3-0.1c-0.1-0.1-0.1-0.1-0.1-0.2c0-0.1,0-0.2,0.1-0.2
				C33.6,214.8,33.7,214.8,33.8,214.8z"/>
			<path fill="#FFFFFF" d="M30.6,218.4c-0.2,0-0.3,0-0.4-0.1s-0.2-0.1-0.3-0.2c-0.1-0.1-0.1-0.2-0.2-0.4s-0.1-0.3-0.1-0.5
				c0-0.2,0-0.4,0.1-0.5s0.1-0.3,0.2-0.4h0.5c0,0.1-0.1,0.1-0.1,0.2s-0.1,0.2-0.1,0.2s0,0.2-0.1,0.3s0,0.2,0,0.3c0,0.1,0,0.2,0,0.3
				c0,0.1,0.1,0.2,0.1,0.2c0,0.1,0.1,0.1,0.1,0.1s0.1,0,0.2,0c0.1,0,0.1,0,0.2,0s0.1-0.1,0.1-0.1c0-0.1,0.1-0.1,0.1-0.2
				s0.1-0.2,0.2-0.3s0.1-0.3,0.2-0.4c0.1-0.1,0.1-0.2,0.2-0.3s0.2-0.1,0.3-0.2s0.2-0.1,0.3-0.1c0.1,0,0.3,0,0.4,0.1s0.2,0.1,0.3,0.2
				s0.1,0.2,0.2,0.4s0.1,0.3,0.1,0.5c0,0.2,0,0.4-0.1,0.5c0,0.2-0.1,0.3-0.2,0.4l-0.4-0.2c0.1-0.1,0.1-0.3,0.1-0.4
				c0-0.1,0.1-0.3,0.1-0.4c0-0.2,0-0.3-0.1-0.4s-0.2-0.1-0.3-0.1c-0.1,0-0.1,0-0.2,0c-0.1,0-0.1,0.1-0.1,0.1s-0.1,0.1-0.1,0.2
				s-0.1,0.2-0.2,0.3c-0.1,0.1-0.1,0.3-0.2,0.4c-0.1,0.1-0.1,0.2-0.2,0.3s-0.2,0.1-0.3,0.2S30.8,218.4,30.6,218.4z"/>
			<path fill="#FFFFFF" d="M30.1,220.2c0,0,0,0.1,0,0.1c0,0,0,0.1,0,0.1s0,0.1,0,0.1c0,0,0,0.1,0,0.1h-0.4c0,0,0-0.1,0-0.1
				s0-0.1,0-0.1s0-0.1,0-0.1s0-0.1,0-0.1c0-0.1,0-0.2,0-0.3s0.1-0.2,0.2-0.3c0.1-0.1,0.2-0.1,0.3-0.2s0.3-0.1,0.5-0.1h1.9v-0.5h0.2
				l0.2,0.5l0.7,0.2v0.3H33v0.8h-0.4v-0.8h-1.9c-0.2,0-0.3,0-0.4,0.1C30.2,220,30.1,220.1,30.1,220.2z"/>
			<path fill="#FFFFFF" d="M29.8,223.4l0.4-0.1v0c-0.1,0-0.2-0.1-0.2-0.2c-0.1-0.1-0.1-0.1-0.2-0.2s-0.1-0.2-0.1-0.3s0-0.2,0-0.3
				c0-0.2,0-0.3,0.1-0.5s0.1-0.2,0.2-0.3s0.2-0.2,0.4-0.2s0.3-0.1,0.5-0.1H33v0.5h-2.1c-0.3,0-0.4,0.1-0.6,0.2s-0.2,0.3-0.2,0.5
				c0,0.2,0,0.3,0.1,0.4s0.1,0.2,0.2,0.3s0.2,0.1,0.4,0.1s0.3,0,0.5,0H33v0.5h-3.2V223.4z"/>
			<path fill="#FFFFFF" d="M33,226.3c0,0.1,0,0.1,0,0.2s0,0.1,0,0.2l-0.5-0.1c0-0.1,0-0.1,0-0.2c0-0.1,0-0.1,0-0.2
				c0-0.1,0-0.2-0.1-0.3s-0.1-0.2-0.2-0.3c-0.1-0.1-0.2-0.1-0.3-0.2c-0.1,0-0.3-0.1-0.4-0.1h-1.7v-0.5H33v0.4l-0.6,0.1v0
				c0.1,0,0.2,0.1,0.2,0.2c0.1,0.1,0.1,0.1,0.2,0.2s0.1,0.1,0.1,0.2S33,226.2,33,226.3z"/>
			<path fill="#FFFFFF" d="M29.7,228.6c0-0.2,0-0.4,0.1-0.6s0.2-0.3,0.3-0.5c0.1-0.1,0.3-0.2,0.5-0.3s0.4-0.1,0.7-0.1
				c0.3,0,0.5,0,0.7,0.1s0.4,0.2,0.5,0.3s0.3,0.3,0.3,0.4c0.1,0.2,0.1,0.3,0.1,0.5c0,0.2,0,0.4-0.1,0.5s-0.2,0.3-0.3,0.4
				s-0.3,0.2-0.5,0.2s-0.4,0.1-0.6,0.1h-0.3v-2c-0.4,0-0.7,0.1-0.8,0.2c-0.2,0.1-0.3,0.4-0.3,0.7c0,0.1,0,0.2,0,0.3
				c0,0.1,0,0.2,0,0.2c0,0.1,0,0.2,0.1,0.2s0.1,0.1,0.1,0.2h-0.5c0-0.1-0.1-0.2-0.1-0.2s0-0.2-0.1-0.2c0-0.1,0-0.2,0-0.2
				C29.7,228.8,29.7,228.7,29.7,228.6z M32.6,228.5c0-0.2-0.1-0.4-0.2-0.5c-0.2-0.1-0.4-0.2-0.7-0.2v1.4c0.1,0,0.3,0,0.4,0
				c0.1,0,0.2-0.1,0.3-0.1c0.1-0.1,0.1-0.1,0.2-0.2S32.6,228.6,32.6,228.5z"/>
			<path fill="#FFFFFF" d="M25.8,109.3c0,0.2,0,0.4-0.1,0.5s-0.2,0.3-0.3,0.4c-0.1,0.1-0.3,0.2-0.5,0.2s-0.4,0.1-0.7,0.1
				c-0.3,0-0.5,0-0.7-0.1s-0.4-0.1-0.5-0.2c-0.1-0.1-0.2-0.2-0.3-0.4s-0.1-0.3-0.1-0.5c0-0.1,0-0.2,0-0.3s0.1-0.2,0.1-0.3
				c0-0.1,0.1-0.1,0.1-0.2c0.1-0.1,0.1-0.1,0.2-0.2v0l-0.4-0.1v-0.4h4.6v0.5H26c-0.1,0-0.1,0-0.2,0s-0.1,0-0.2,0c-0.1,0-0.2,0-0.2,0
				v0c0.1,0,0.1,0.1,0.2,0.2s0.1,0.1,0.2,0.2s0.1,0.2,0.1,0.3S25.8,109.2,25.8,109.3z M25.4,109.2c0-0.2,0-0.3-0.1-0.4
				s-0.1-0.2-0.2-0.3s-0.2-0.1-0.4-0.1c-0.2,0-0.3,0-0.5,0c-0.2,0-0.4,0-0.5,0c-0.2,0-0.3,0.1-0.4,0.1s-0.2,0.1-0.2,0.3
				s-0.1,0.2-0.1,0.4c0,0.3,0.1,0.5,0.3,0.6s0.5,0.2,0.9,0.2c0.4,0,0.7-0.1,0.9-0.2S25.4,109.4,25.4,109.2z"/>
			<path fill="#FFFFFF" d="M25.8,112.8c0,0.1,0,0.1,0,0.2s0,0.1,0,0.2l-0.5-0.1c0-0.1,0-0.1,0-0.2c0-0.1,0-0.1,0-0.2
				c0-0.1,0-0.2-0.1-0.3s-0.1-0.2-0.2-0.3c-0.1-0.1-0.2-0.1-0.3-0.2c-0.1,0-0.3-0.1-0.4-0.1h-1.7v-0.5h3.2v0.4l-0.6,0.1v0
				c0.1,0,0.2,0.1,0.2,0.2c0.1,0.1,0.1,0.1,0.2,0.2s0.1,0.1,0.1,0.2S25.8,112.7,25.8,112.8z"/>
			<path fill="#FFFFFF" d="M24.2,116.5c-0.3,0-0.5,0-0.7-0.1s-0.4-0.2-0.5-0.3s-0.2-0.3-0.3-0.4s-0.1-0.4-0.1-0.6
				c0-0.2,0-0.4,0.1-0.6s0.2-0.3,0.3-0.4s0.3-0.2,0.5-0.3c0.2-0.1,0.4-0.1,0.7-0.1c0.3,0,0.5,0,0.7,0.1c0.2,0.1,0.4,0.2,0.5,0.3
				s0.2,0.3,0.3,0.4s0.1,0.4,0.1,0.6c0,0.2,0,0.4-0.1,0.6s-0.2,0.3-0.3,0.4c-0.1,0.1-0.3,0.2-0.5,0.3S24.4,116.5,24.2,116.5z
				 M24.2,114.2c-0.4,0-0.7,0.1-0.9,0.2s-0.3,0.4-0.3,0.7s0.1,0.5,0.3,0.6c0.2,0.1,0.5,0.2,0.9,0.2s0.7-0.1,0.9-0.2
				c0.2-0.1,0.3-0.4,0.3-0.7s-0.1-0.5-0.3-0.6C24.9,114.3,24.6,114.2,24.2,114.2z"/>
			<path fill="#FFFFFF" d="M22.6,119.8l1.8-0.5c0,0,0.1,0,0.1,0s0.1,0,0.1,0s0.1,0,0.1,0s0.1,0,0.1,0c0.1,0,0.2-0.1,0.4-0.1v0
				c-0.1,0-0.2-0.1-0.4-0.1c-0.1,0-0.2,0-0.3-0.1s-0.2,0-0.3-0.1l-1.8-0.5v-0.6l3.2-0.8v0.6l-1.7,0.4c-0.1,0-0.2,0-0.3,0.1
				s-0.2,0-0.3,0.1s-0.2,0-0.3,0s-0.2,0-0.2,0v0c0.1,0,0.1,0,0.2,0s0.2,0,0.3,0.1c0.1,0,0.2,0,0.3,0.1s0.2,0,0.2,0.1l1.8,0.5v0.6
				l-1.8,0.5c-0.1,0-0.1,0-0.2,0.1c-0.1,0-0.2,0-0.3,0.1s-0.2,0-0.3,0.1s-0.2,0-0.2,0v0c0.1,0,0.1,0,0.2,0s0.2,0,0.3,0
				s0.2,0,0.3,0.1c0.1,0,0.2,0,0.3,0.1l1.7,0.4v0.5l-3.2-0.8V119.8z"/>
			<path fill="#FFFFFF" d="M22.6,123.9h2.1c0.3,0,0.4-0.1,0.6-0.2c0.1-0.1,0.2-0.3,0.2-0.5c0-0.2,0-0.3-0.1-0.4s-0.1-0.2-0.2-0.3
				c-0.1-0.1-0.2-0.1-0.4-0.1c-0.1,0-0.3,0-0.5,0h-1.7v-0.5h3.2v0.4l-0.4,0.1v0c0.1,0,0.2,0.1,0.2,0.2c0.1,0.1,0.1,0.1,0.2,0.2
				s0.1,0.2,0.1,0.3s0,0.2,0,0.3c0,0.4-0.1,0.6-0.3,0.8s-0.5,0.3-0.9,0.3h-2.1V123.9z"/>
			<path fill="#FFFFFF" d="M22.9,125.4c0.1,0,0.1,0,0.2,0s0.1,0,0.1,0.1s0.1,0.1,0.1,0.1s0,0.1,0,0.1c0,0.1,0,0.1,0,0.1
				s0,0.1-0.1,0.1s-0.1,0.1-0.1,0.1s-0.1,0-0.2,0c-0.1,0-0.1,0-0.2,0s-0.1,0-0.1-0.1s-0.1-0.1-0.1-0.1s0-0.1,0-0.1
				c0-0.1,0-0.1,0-0.1s0-0.1,0.1-0.1s0.1-0.1,0.1-0.1S22.8,125.4,22.9,125.4z M25.5,125.4c0.1,0,0.1,0,0.2,0s0.1,0,0.1,0.1
				s0.1,0.1,0.1,0.1s0,0.1,0,0.1c0,0.1,0,0.1,0,0.1s0,0.1-0.1,0.1s-0.1,0.1-0.1,0.1s-0.1,0-0.2,0c-0.1,0-0.1,0-0.2,0s-0.1,0-0.1-0.1
				s-0.1-0.1-0.1-0.1s0-0.1,0-0.1c0-0.1,0-0.1,0-0.1s0-0.1,0.1-0.1s0.1-0.1,0.1-0.1S25.4,125.4,25.5,125.4z"/>
			<path fill="#FFFFFF" d="M26.8,142.4v0.6l-4.3-1.4V141l4.3-1.4v0.6l-2.7,0.9c-0.2,0.1-0.3,0.1-0.5,0.1s-0.3,0.1-0.5,0.1
				c0.1,0,0.3,0.1,0.5,0.1s0.3,0.1,0.5,0.2L26.8,142.4z"/>
			<path fill="#FFFFFF" d="M26.4,145.3c0-0.2,0-0.4-0.1-0.6s-0.2-0.3-0.3-0.4c-0.1-0.1-0.3-0.2-0.5-0.3s-0.5-0.1-0.7-0.1
				c-0.3,0-0.5,0-0.7,0.1s-0.4,0.1-0.5,0.3s-0.3,0.3-0.3,0.4S23,145,23,145.3c0,0.2,0,0.3,0.1,0.5s0.1,0.3,0.1,0.5h-0.5
				c0-0.1-0.1-0.2-0.1-0.2s0-0.2-0.1-0.2c0-0.1,0-0.2,0-0.3s0-0.2,0-0.3c0-0.3,0.1-0.6,0.2-0.8s0.3-0.4,0.4-0.6s0.4-0.3,0.7-0.3
				s0.6-0.1,0.9-0.1c0.3,0,0.6,0,0.9,0.1c0.3,0.1,0.5,0.2,0.7,0.4c0.2,0.2,0.3,0.4,0.5,0.6s0.2,0.5,0.2,0.8c0,0.2,0,0.4-0.1,0.6
				s-0.1,0.4-0.2,0.5l-0.5-0.2c0.1-0.1,0.1-0.3,0.2-0.4S26.4,145.5,26.4,145.3z"/>
			<path fill="#FFFFFF" d="M26.4,148.8c0-0.2,0-0.4-0.1-0.6s-0.2-0.3-0.3-0.4c-0.1-0.1-0.3-0.2-0.5-0.3s-0.5-0.1-0.7-0.1
				c-0.3,0-0.5,0-0.7,0.1s-0.4,0.1-0.5,0.3s-0.3,0.3-0.3,0.4s-0.1,0.4-0.1,0.6c0,0.2,0,0.3,0.1,0.5s0.1,0.3,0.1,0.5h-0.5
				c0-0.1-0.1-0.2-0.1-0.2s0-0.2-0.1-0.2c0-0.1,0-0.2,0-0.3s0-0.2,0-0.3c0-0.3,0.1-0.6,0.2-0.8s0.3-0.4,0.4-0.6s0.4-0.3,0.7-0.3
				s0.6-0.1,0.9-0.1c0.3,0,0.6,0,0.9,0.1c0.3,0.1,0.5,0.2,0.7,0.4c0.2,0.2,0.3,0.4,0.5,0.6s0.2,0.5,0.2,0.8c0,0.2,0,0.4-0.1,0.6
				s-0.1,0.4-0.2,0.5l-0.5-0.2c0.1-0.1,0.1-0.3,0.2-0.4S26.4,149,26.4,148.8z"/>
			<path fill="#FFFFFF" d="M25.8,171h-0.3l-0.1-0.6c-0.1,0.1-0.2,0.1-0.3,0.1s-0.2,0.1-0.4,0.1c-0.1,0-0.3,0-0.4-0.1
				s-0.2-0.1-0.3-0.2c-0.1-0.1-0.2-0.2-0.2-0.3s-0.1-0.3-0.1-0.5c0,0,0-0.1,0-0.1s0-0.1,0-0.1c0,0,0-0.1-0.1-0.1
				c0,0-0.1-0.1-0.1-0.1c0,0-0.1,0-0.1-0.1c0,0-0.1,0-0.1,0c-0.1,0-0.1,0-0.1,0s-0.1,0.1-0.1,0.1c0,0,0,0.1,0,0.1s0,0.1,0,0.2v0.5
				c0,0.2,0,0.3-0.1,0.5s-0.1,0.2-0.2,0.3c-0.1,0.1-0.2,0.1-0.3,0.2s-0.2,0.1-0.3,0.1c-0.2,0-0.3,0-0.5-0.1s-0.3-0.2-0.3-0.3
				s-0.2-0.3-0.2-0.5c-0.1-0.2-0.1-0.4-0.1-0.7c0-0.2,0-0.4,0.1-0.5s0.1-0.3,0.2-0.4s0.2-0.2,0.3-0.2s0.2-0.1,0.4-0.1
				c0.1,0,0.2,0,0.3,0.1c0.1,0,0.2,0.1,0.2,0.2s0.1,0.1,0.2,0.2c0,0.1,0.1,0.2,0.1,0.3c0-0.1,0.1-0.1,0.2-0.2s0.2-0.1,0.3-0.1
				c0.1,0,0.2,0,0.3,0.1s0.2,0.2,0.3,0.3c0-0.1,0.1-0.2,0.1-0.2c0.1-0.1,0.1-0.1,0.2-0.2c0.1,0,0.2-0.1,0.3-0.1c0.1,0,0.2,0,0.3,0
				c0.2,0,0.3,0,0.5,0.1s0.3,0.1,0.3,0.2s0.2,0.2,0.2,0.4s0.1,0.3,0.1,0.5c0,0.1,0,0.1,0,0.2c0,0.1,0,0.1,0,0.2V171z M22,168.6
				c-0.1,0-0.1,0-0.2,0s-0.1,0.1-0.2,0.1c0,0.1-0.1,0.1-0.1,0.2c0,0.1,0,0.2,0,0.4c0,0.4,0.1,0.6,0.2,0.8s0.3,0.3,0.5,0.3
				c0.1,0,0.2,0,0.2,0s0.1-0.1,0.1-0.1c0-0.1,0.1-0.1,0.1-0.2s0-0.2,0-0.3v-0.5c0-0.1,0-0.1,0-0.2s0-0.1-0.1-0.2
				c0-0.1-0.1-0.1-0.2-0.2S22.2,168.6,22,168.6z M24.7,168.9c-0.2,0-0.4,0.1-0.5,0.2s-0.2,0.3-0.2,0.4c0,0.2,0.1,0.3,0.2,0.4
				s0.3,0.2,0.5,0.2c0.2,0,0.4-0.1,0.5-0.2c0.1-0.1,0.2-0.3,0.2-0.4c0-0.2-0.1-0.3-0.2-0.4S25,168.9,24.7,168.9z"/>
			<path fill="#FFFFFF" d="M25.8,173.1c0,0.1,0,0.1,0,0.2s0,0.1,0,0.2l-0.5-0.1c0-0.1,0-0.1,0-0.2c0-0.1,0-0.1,0-0.2
				c0-0.1,0-0.2-0.1-0.3s-0.1-0.2-0.2-0.3c-0.1-0.1-0.2-0.1-0.3-0.2c-0.1,0-0.3-0.1-0.4-0.1h-1.7v-0.5h3.2v0.4l-0.6,0.1v0
				c0.1,0,0.2,0.1,0.2,0.2c0.1,0.1,0.1,0.1,0.2,0.2s0.1,0.1,0.1,0.2S25.8,173,25.8,173.1z"/>
			<path fill="#FFFFFF" d="M22.5,175.4c0-0.2,0-0.4,0.1-0.6s0.2-0.3,0.3-0.5c0.1-0.1,0.3-0.2,0.5-0.3s0.4-0.1,0.7-0.1
				c0.3,0,0.5,0,0.7,0.1s0.4,0.2,0.5,0.3s0.3,0.3,0.3,0.4c0.1,0.2,0.1,0.3,0.1,0.5c0,0.2,0,0.4-0.1,0.5s-0.2,0.3-0.3,0.4
				s-0.3,0.2-0.5,0.2s-0.4,0.1-0.6,0.1h-0.3v-2c-0.4,0-0.7,0.1-0.8,0.2c-0.2,0.1-0.3,0.4-0.3,0.7c0,0.1,0,0.2,0,0.3
				c0,0.1,0,0.2,0,0.2c0,0.1,0,0.2,0.1,0.2s0.1,0.1,0.1,0.2h-0.5c0-0.1-0.1-0.2-0.1-0.2s0-0.2-0.1-0.2c0-0.1,0-0.2,0-0.2
				C22.5,175.6,22.5,175.5,22.5,175.4z M25.4,175.3c0-0.2-0.1-0.4-0.2-0.5c-0.2-0.1-0.4-0.2-0.7-0.2v1.4c0.1,0,0.3,0,0.4,0
				c0.1,0,0.2-0.1,0.3-0.1c0.1-0.1,0.1-0.1,0.2-0.2S25.4,175.4,25.4,175.3z"/>
			<path fill="#FFFFFF" d="M22.5,178.7c0-0.2,0-0.4,0.1-0.6s0.2-0.3,0.3-0.5c0.1-0.1,0.3-0.2,0.5-0.3s0.4-0.1,0.7-0.1
				c0.3,0,0.5,0,0.7,0.1s0.4,0.2,0.5,0.3s0.3,0.3,0.3,0.4c0.1,0.2,0.1,0.3,0.1,0.5c0,0.2,0,0.4-0.1,0.5s-0.2,0.3-0.3,0.4
				s-0.3,0.2-0.5,0.2s-0.4,0.1-0.6,0.1h-0.3v-2c-0.4,0-0.7,0.1-0.8,0.2c-0.2,0.1-0.3,0.4-0.3,0.7c0,0.1,0,0.2,0,0.3
				c0,0.1,0,0.2,0,0.2c0,0.1,0,0.2,0.1,0.2s0.1,0.1,0.1,0.2h-0.5c0-0.1-0.1-0.2-0.1-0.2s0-0.2-0.1-0.2c0-0.1,0-0.2,0-0.2
				C22.5,178.9,22.5,178.8,22.5,178.7z M25.4,178.5c0-0.2-0.1-0.4-0.2-0.5c-0.2-0.1-0.4-0.2-0.7-0.2v1.4c0.1,0,0.3,0,0.4,0
				c0.1,0,0.2-0.1,0.3-0.1c0.1-0.1,0.1-0.1,0.2-0.2S25.4,178.7,25.4,178.5z"/>
			<path fill="#FFFFFF" d="M22.6,182.7h2.1c0.3,0,0.4-0.1,0.6-0.2c0.1-0.1,0.2-0.3,0.2-0.5c0-0.2,0-0.3-0.1-0.4s-0.1-0.2-0.2-0.3
				c-0.1-0.1-0.2-0.1-0.4-0.1c-0.1,0-0.3,0-0.5,0h-1.7v-0.5h3.2v0.4l-0.4,0.1v0c0.1,0,0.2,0.1,0.2,0.2c0.1,0.1,0.1,0.1,0.2,0.2
				s0.1,0.2,0.1,0.3s0,0.2,0,0.3c0,0.4-0.1,0.6-0.3,0.8s-0.5,0.3-0.9,0.3h-2.1V182.7z"/>
			<path fill="#FFFFFF" d="M22.9,184.2c0.1,0,0.1,0,0.2,0s0.1,0,0.1,0.1s0.1,0.1,0.1,0.1s0,0.1,0,0.1c0,0.1,0,0.1,0,0.1
				s0,0.1-0.1,0.1s-0.1,0.1-0.1,0.1s-0.1,0-0.2,0c-0.1,0-0.1,0-0.2,0s-0.1,0-0.1-0.1s-0.1-0.1-0.1-0.1s0-0.1,0-0.1
				c0-0.1,0-0.1,0-0.1s0-0.1,0.1-0.1s0.1-0.1,0.1-0.1S22.8,184.2,22.9,184.2z M25.5,184.2c0.1,0,0.1,0,0.2,0s0.1,0,0.1,0.1
				s0.1,0.1,0.1,0.1s0,0.1,0,0.1c0,0.1,0,0.1,0,0.1s0,0.1-0.1,0.1s-0.1,0.1-0.1,0.1s-0.1,0-0.2,0c-0.1,0-0.1,0-0.2,0s-0.1,0-0.1-0.1
				s-0.1-0.1-0.1-0.1s0-0.1,0-0.1c0-0.1,0-0.1,0-0.1s0-0.1,0.1-0.1s0.1-0.1,0.1-0.1S25.4,184.2,25.5,184.2z"/>
			<path fill="#FFFFFF" d="M24.2,191.8c-0.3,0-0.5,0-0.7-0.1s-0.4-0.2-0.5-0.3s-0.2-0.3-0.3-0.4s-0.1-0.4-0.1-0.6
				c0-0.2,0-0.4,0.1-0.6s0.2-0.3,0.3-0.4s0.3-0.2,0.5-0.3c0.2-0.1,0.4-0.1,0.7-0.1c0.3,0,0.5,0,0.7,0.1c0.2,0.1,0.4,0.2,0.5,0.3
				s0.2,0.3,0.3,0.4s0.1,0.4,0.1,0.6c0,0.2,0,0.4-0.1,0.6s-0.2,0.3-0.3,0.4c-0.1,0.1-0.3,0.2-0.5,0.3S24.4,191.8,24.2,191.8z
				 M24.2,189.5c-0.4,0-0.7,0.1-0.9,0.2s-0.3,0.4-0.3,0.7s0.1,0.5,0.3,0.6c0.2,0.1,0.5,0.2,0.9,0.2s0.7-0.1,0.9-0.2
				c0.2-0.1,0.3-0.4,0.3-0.7s-0.1-0.5-0.3-0.6C24.9,189.6,24.6,189.5,24.2,189.5z"/>
			<path fill="#FFFFFF" d="M22.6,194.8l0.4-0.1v0c-0.1,0-0.2-0.1-0.2-0.2c-0.1-0.1-0.1-0.1-0.2-0.2s-0.1-0.2-0.1-0.3s0-0.2,0-0.3
				c0-0.2,0-0.3,0.1-0.5s0.1-0.2,0.2-0.3s0.2-0.2,0.4-0.2s0.3-0.1,0.5-0.1h2.1v0.5h-2.1c-0.3,0-0.4,0.1-0.6,0.2s-0.2,0.3-0.2,0.5
				c0,0.2,0,0.3,0.1,0.4s0.1,0.2,0.2,0.3s0.2,0.1,0.4,0.1s0.3,0,0.5,0h1.7v0.5h-3.2V194.8z"/>
			<path fill="#FFFFFF" d="M22.9,197.3c0,0,0,0.1,0,0.1c0,0,0,0.1,0,0.1s0,0.1,0,0.1c0,0,0,0.1,0,0.1h-0.4c0,0,0-0.1,0-0.1
				s0-0.1,0-0.1s0-0.1,0-0.1s0-0.1,0-0.1c0-0.1,0-0.2,0-0.3s0.1-0.2,0.2-0.3c0.1-0.1,0.2-0.1,0.3-0.2s0.3-0.1,0.5-0.1h1.9v-0.5h0.2
				l0.2,0.5l0.7,0.2v0.3h-0.7v0.8h-0.4v-0.8h-1.9c-0.2,0-0.3,0-0.4,0.1C23,197,22.9,197.1,22.9,197.3z"/>
			<path fill="#FFFFFF" d="M22.5,199.8c0-0.1,0-0.2,0-0.3s0.1-0.2,0.1-0.3c0-0.1,0.1-0.1,0.1-0.2c0.1-0.1,0.1-0.1,0.2-0.2v0
				c-0.1,0-0.1,0-0.2,0c-0.1,0-0.1,0-0.2,0s-0.1,0-0.1,0h-1.4v-0.5h4.7v0.4l-0.4,0.1v0c0.1,0,0.1,0.1,0.2,0.2s0.1,0.1,0.2,0.2
				s0.1,0.2,0.1,0.3s0,0.2,0,0.3c0,0.2,0,0.4-0.1,0.5s-0.2,0.3-0.3,0.4c-0.1,0.1-0.3,0.2-0.5,0.2s-0.4,0.1-0.7,0.1
				c-0.3,0-0.5,0-0.7-0.1s-0.4-0.1-0.5-0.2c-0.1-0.1-0.2-0.2-0.3-0.4S22.5,200,22.5,199.8z M25.4,199.7c0-0.1,0-0.3-0.1-0.4
				c0-0.1-0.1-0.2-0.2-0.3s-0.2-0.1-0.3-0.1s-0.3,0-0.5-0.1h-0.1c-0.2,0-0.4,0-0.5,0c-0.2,0-0.3,0.1-0.4,0.1s-0.2,0.1-0.2,0.3
				s-0.1,0.2-0.1,0.4c0,0.3,0.1,0.5,0.3,0.6s0.5,0.2,0.9,0.2c0.4,0,0.7-0.1,0.9-0.2S25.4,200,25.4,199.7z"/>
			<path fill="#FFFFFF" d="M22.6,204L23,204v0c-0.1,0-0.2-0.1-0.2-0.2c-0.1-0.1-0.1-0.1-0.2-0.2s-0.1-0.2-0.1-0.3s0-0.2,0-0.3
				c0-0.2,0-0.3,0.1-0.5s0.1-0.2,0.2-0.3s0.2-0.2,0.4-0.2s0.3-0.1,0.5-0.1h2.1v0.5h-2.1c-0.3,0-0.4,0.1-0.6,0.2s-0.2,0.3-0.2,0.5
				c0,0.2,0,0.3,0.1,0.4s0.1,0.2,0.2,0.3s0.2,0.1,0.4,0.1s0.3,0,0.5,0h1.7v0.5h-3.2V204z"/>
			<path fill="#FFFFFF" d="M22.9,206.5c0,0,0,0.1,0,0.1c0,0,0,0.1,0,0.1s0,0.1,0,0.1c0,0,0,0.1,0,0.1h-0.4c0,0,0-0.1,0-0.1
				s0-0.1,0-0.1s0-0.1,0-0.1s0-0.1,0-0.1c0-0.1,0-0.2,0-0.3s0.1-0.2,0.2-0.3c0.1-0.1,0.2-0.1,0.3-0.2s0.3-0.1,0.5-0.1h1.9v-0.5h0.2
				l0.2,0.5l0.7,0.2v0.3h-0.7v0.8h-0.4v-0.8h-1.9c-0.2,0-0.3,0-0.4,0.1C23,206.3,22.9,206.4,22.9,206.5z"/>
			<path fill="#FFFFFF" d="M22.9,210.2c0,0,0,0.1,0,0.1c0,0,0,0.1,0,0.1s0,0.1,0,0.1c0,0,0,0.1,0,0.1h-0.4c0,0,0-0.1,0-0.1
				s0-0.1,0-0.1s0-0.1,0-0.1s0-0.1,0-0.1c0-0.1,0-0.2,0-0.3s0.1-0.2,0.2-0.3c0.1-0.1,0.2-0.1,0.3-0.2s0.3-0.1,0.5-0.1h1.9v-0.5h0.2
				l0.2,0.5l0.7,0.2v0.3h-0.7v0.8h-0.4v-0.8h-1.9c-0.2,0-0.3,0-0.4,0.1C23,210,22.9,210.1,22.9,210.2z"/>
			<path fill="#FFFFFF" d="M22.5,212.6c0-0.2,0-0.4,0.1-0.6s0.2-0.3,0.3-0.5c0.1-0.1,0.3-0.2,0.5-0.3s0.4-0.1,0.7-0.1
				c0.3,0,0.5,0,0.7,0.1s0.4,0.2,0.5,0.3s0.3,0.3,0.3,0.4c0.1,0.2,0.1,0.3,0.1,0.5c0,0.2,0,0.4-0.1,0.5s-0.2,0.3-0.3,0.4
				s-0.3,0.2-0.5,0.2s-0.4,0.1-0.6,0.1h-0.3v-2c-0.4,0-0.7,0.1-0.8,0.2c-0.2,0.1-0.3,0.4-0.3,0.7c0,0.1,0,0.2,0,0.3
				c0,0.1,0,0.2,0,0.2c0,0.1,0,0.2,0.1,0.2s0.1,0.1,0.1,0.2h-0.5c0-0.1-0.1-0.2-0.1-0.2s0-0.2-0.1-0.2c0-0.1,0-0.2,0-0.2
				C22.5,212.8,22.5,212.7,22.5,212.6z M25.4,212.5c0-0.2-0.1-0.4-0.2-0.5c-0.2-0.1-0.4-0.2-0.7-0.2v1.4c0.1,0,0.3,0,0.4,0
				c0.1,0,0.2-0.1,0.3-0.1c0.1-0.1,0.1-0.1,0.2-0.2S25.4,212.6,25.4,212.5z"/>
			<path fill="#FFFFFF" d="M22.6,218.5h2.1c0.3,0,0.4,0,0.6-0.1s0.2-0.2,0.2-0.5c0-0.1,0-0.3-0.1-0.4s-0.1-0.2-0.2-0.2
				c-0.1-0.1-0.2-0.1-0.3-0.1s-0.3,0-0.5,0h-1.8v-0.5h2.1c0.3,0,0.4,0,0.6-0.1c0.1-0.1,0.2-0.2,0.2-0.5c0-0.2,0-0.3-0.1-0.4
				s-0.1-0.2-0.2-0.2c-0.1-0.1-0.2-0.1-0.4-0.1c-0.1,0-0.3,0-0.5,0h-1.7v-0.5h3.2v0.4l-0.4,0.1v0c0.1,0,0.2,0.1,0.2,0.2
				s0.1,0.1,0.2,0.2s0.1,0.2,0.1,0.2s0,0.2,0,0.3c0,0.2,0,0.4-0.1,0.6c-0.1,0.2-0.2,0.3-0.4,0.3v0c0.1,0.1,0.2,0.1,0.2,0.2
				s0.1,0.2,0.2,0.2c0,0.1,0.1,0.2,0.1,0.3s0,0.2,0,0.3c0,0.3-0.1,0.6-0.3,0.8c-0.2,0.2-0.5,0.3-0.9,0.3h-2.1V218.5z"/>
			<path fill="#FFFFFF" d="M22.5,221.5c0-0.1,0-0.2,0-0.3s0.1-0.2,0.1-0.3c0-0.1,0.1-0.1,0.1-0.2c0.1-0.1,0.1-0.1,0.2-0.2v0
				c-0.1,0-0.1,0-0.2,0c-0.1,0-0.1,0-0.2,0s-0.1,0-0.1,0h-1.4v-0.5h4.7v0.4l-0.4,0.1v0c0.1,0,0.1,0.1,0.2,0.2s0.1,0.1,0.2,0.2
				s0.1,0.2,0.1,0.3s0,0.2,0,0.3c0,0.2,0,0.4-0.1,0.5s-0.2,0.3-0.3,0.4c-0.1,0.1-0.3,0.2-0.5,0.2s-0.4,0.1-0.7,0.1
				c-0.3,0-0.5,0-0.7-0.1s-0.4-0.1-0.5-0.2c-0.1-0.1-0.2-0.2-0.3-0.4S22.5,221.7,22.5,221.5z M25.4,221.4c0-0.1,0-0.3-0.1-0.4
				c0-0.1-0.1-0.2-0.2-0.3s-0.2-0.1-0.3-0.1s-0.3,0-0.5-0.1h-0.1c-0.2,0-0.4,0-0.5,0c-0.2,0-0.3,0.1-0.4,0.1s-0.2,0.1-0.2,0.3
				s-0.1,0.2-0.1,0.4c0,0.3,0.1,0.5,0.3,0.6s0.5,0.2,0.9,0.2c0.4,0,0.7-0.1,0.9-0.2S25.4,221.7,25.4,221.4z"/>
			<path fill="#FFFFFF" d="M22.5,224.9c0-0.2,0-0.4,0.1-0.6s0.2-0.3,0.3-0.5c0.1-0.1,0.3-0.2,0.5-0.3s0.4-0.1,0.7-0.1
				c0.3,0,0.5,0,0.7,0.1s0.4,0.2,0.5,0.3s0.3,0.3,0.3,0.4c0.1,0.2,0.1,0.3,0.1,0.5c0,0.2,0,0.4-0.1,0.5s-0.2,0.3-0.3,0.4
				s-0.3,0.2-0.5,0.2s-0.4,0.1-0.6,0.1h-0.3v-2c-0.4,0-0.7,0.1-0.8,0.2c-0.2,0.1-0.3,0.4-0.3,0.7c0,0.1,0,0.2,0,0.3
				c0,0.1,0,0.2,0,0.2c0,0.1,0,0.2,0.1,0.2s0.1,0.1,0.1,0.2h-0.5c0-0.1-0.1-0.2-0.1-0.2s0-0.2-0.1-0.2c0-0.1,0-0.2,0-0.2
				C22.5,225.1,22.5,225,22.5,224.9z M25.4,224.8c0-0.2-0.1-0.4-0.2-0.5c-0.2-0.1-0.4-0.2-0.7-0.2v1.4c0.1,0,0.3,0,0.4,0
				c0.1,0,0.2-0.1,0.3-0.1c0.1-0.1,0.1-0.1,0.2-0.2S25.4,224.9,25.4,224.8z"/>
			<path fill="#FFFFFF" d="M25.8,228.3c0,0.1,0,0.1,0,0.2s0,0.1,0,0.2l-0.5-0.1c0-0.1,0-0.1,0-0.2c0-0.1,0-0.1,0-0.2
				c0-0.1,0-0.2-0.1-0.3s-0.1-0.2-0.2-0.3c-0.1-0.1-0.2-0.1-0.3-0.2c-0.1,0-0.3-0.1-0.4-0.1h-1.7v-0.5h3.2v0.4l-0.6,0.1v0
				c0.1,0,0.2,0.1,0.2,0.2c0.1,0.1,0.1,0.1,0.2,0.2s0.1,0.1,0.1,0.2S25.8,228.2,25.8,228.3z"/>
			<path fill="#FFFFFF" d="M22.6,231.1L23,231v0c-0.1-0.1-0.2-0.1-0.2-0.2s-0.1-0.1-0.2-0.2s-0.1-0.2-0.1-0.3s0-0.2,0-0.3
				c0-0.1,0-0.3,0.1-0.4s0.1-0.2,0.2-0.3c0.1-0.1,0.2-0.1,0.3-0.2s0.3-0.1,0.4-0.1c0.3,0,0.6,0.1,0.7,0.3c0.2,0.2,0.3,0.6,0.3,1
				l0,0.5h0.2c0.1,0,0.2,0,0.3,0c0.1,0,0.2-0.1,0.2-0.1c0.1-0.1,0.1-0.1,0.1-0.2c0-0.1,0-0.2,0-0.3c0-0.2,0-0.3-0.1-0.5
				s-0.1-0.3-0.2-0.4l0.4-0.2c0.1,0.1,0.1,0.3,0.2,0.5s0.1,0.4,0.1,0.6c0,0.2,0,0.4-0.1,0.5c0,0.1-0.1,0.3-0.2,0.4s-0.2,0.2-0.3,0.2
				s-0.3,0.1-0.5,0.1h-2.2V231.1z M22.9,230.1c0,0.1,0,0.2,0.1,0.3s0.1,0.2,0.2,0.3s0.2,0.1,0.3,0.2s0.2,0.1,0.4,0.1h0.3l0-0.4
				c0-0.2,0-0.3-0.1-0.4s-0.1-0.2-0.1-0.3s-0.1-0.1-0.2-0.2s-0.2,0-0.3,0c-0.2,0-0.3,0-0.4,0.1S22.9,230,22.9,230.1z"/>
			<path fill="#FFFFFF" d="M22.6,234.6l0.4-0.1v0c-0.1,0-0.2-0.1-0.2-0.2c-0.1-0.1-0.1-0.1-0.2-0.2s-0.1-0.2-0.1-0.3s0-0.2,0-0.3
				c0-0.2,0-0.3,0.1-0.5s0.1-0.2,0.2-0.3s0.2-0.2,0.4-0.2s0.3-0.1,0.5-0.1h2.1v0.5h-2.1c-0.3,0-0.4,0.1-0.6,0.2s-0.2,0.3-0.2,0.5
				c0,0.2,0,0.3,0.1,0.4s0.1,0.2,0.2,0.3s0.2,0.1,0.4,0.1s0.3,0,0.5,0h1.7v0.5h-3.2V234.6z"/>
			<path fill="#FFFFFF" d="M22.9,237.1c0,0,0,0.1,0,0.1c0,0,0,0.1,0,0.1s0,0.1,0,0.1c0,0,0,0.1,0,0.1h-0.4c0,0,0-0.1,0-0.1
				s0-0.1,0-0.1s0-0.1,0-0.1s0-0.1,0-0.1c0-0.1,0-0.2,0-0.3s0.1-0.2,0.2-0.3c0.1-0.1,0.2-0.1,0.3-0.2s0.3-0.1,0.5-0.1h1.9v-0.5h0.2
				l0.2,0.5l0.7,0.2v0.3h-0.7v0.8h-0.4v-0.8h-1.9c-0.2,0-0.3,0-0.4,0.1C23,236.9,22.9,237,22.9,237.1z"/>
			<path fill="#FFFFFF" d="M22.5,239.5c0-0.2,0-0.4,0.1-0.6s0.2-0.3,0.3-0.5c0.1-0.1,0.3-0.2,0.5-0.3s0.4-0.1,0.7-0.1
				c0.3,0,0.5,0,0.7,0.1s0.4,0.2,0.5,0.3s0.3,0.3,0.3,0.4c0.1,0.2,0.1,0.3,0.1,0.5c0,0.2,0,0.4-0.1,0.5s-0.2,0.3-0.3,0.4
				s-0.3,0.2-0.5,0.2s-0.4,0.1-0.6,0.1h-0.3v-2c-0.4,0-0.7,0.1-0.8,0.2c-0.2,0.1-0.3,0.4-0.3,0.7c0,0.1,0,0.2,0,0.3
				c0,0.1,0,0.2,0,0.2c0,0.1,0,0.2,0.1,0.2s0.1,0.1,0.1,0.2h-0.5c0-0.1-0.1-0.2-0.1-0.2s0-0.2-0.1-0.2c0-0.1,0-0.2,0-0.2
				C22.5,239.7,22.5,239.6,22.5,239.5z M25.4,239.4c0-0.2-0.1-0.4-0.2-0.5c-0.2-0.1-0.4-0.2-0.7-0.2v1.4c0.1,0,0.3,0,0.4,0
				c0.1,0,0.2-0.1,0.3-0.1c0.1-0.1,0.1-0.1,0.2-0.2S25.4,239.5,25.4,239.4z"/>
		</g>
	</g>
	<g id="JST">
		<g>
			<g id="Ebene_1-2">
				<g id="g27873">
					<g id="g6901">
						<g id="text6815">
							<g>
								<path fill="#FFFFFF" d="M44.6,370l0.2,0c0,0.1,0.1,0.2,0.1,0.3s0.1,0.1,0.2,0.1c0.1,0,0.2,0,0.3-0.1s0.1-0.2,0.1-0.3
									c0-0.1,0-0.2-0.1-0.3c-0.1-0.1-0.2-0.1-0.3-0.1c-0.1,0-0.1,0-0.2,0.1c-0.1,0-0.1,0.1-0.1,0.1l-0.2,0l0.2-1h1v0.2H45
									l-0.1,0.5c0.1-0.1,0.2-0.1,0.4-0.1c0.2,0,0.3,0.1,0.4,0.2c0.1,0.1,0.2,0.3,0.2,0.4c0,0.2,0,0.3-0.2,0.4
									c-0.1,0.2-0.3,0.2-0.5,0.2c-0.2,0-0.3,0-0.4-0.1C44.7,370.3,44.6,370.2,44.6,370z"/>
							</g>
						</g>
						<g id="text6819">
							<g>
								<path fill="#FFFFFF" d="M52.5,369l-0.2,0c0-0.1,0-0.2-0.1-0.2c-0.1-0.1-0.1-0.1-0.2-0.1c-0.1,0-0.1,0-0.2,0.1
									c-0.1,0.1-0.1,0.1-0.2,0.2c0,0.1-0.1,0.3-0.1,0.4c0.1-0.1,0.1-0.2,0.2-0.2c0.1,0,0.2-0.1,0.3-0.1c0.2,0,0.3,0.1,0.4,0.2
									s0.2,0.3,0.2,0.4c0,0.1,0,0.2-0.1,0.3s-0.1,0.2-0.2,0.2c-0.1,0.1-0.2,0.1-0.3,0.1c-0.2,0-0.4-0.1-0.5-0.2
									c-0.1-0.1-0.2-0.4-0.2-0.7c0-0.4,0.1-0.6,0.2-0.8c0.1-0.1,0.3-0.2,0.5-0.2c0.2,0,0.3,0,0.4,0.1
									C52.4,368.7,52.5,368.9,52.5,369z M51.6,369.8c0,0.1,0,0.2,0.1,0.2c0,0.1,0.1,0.1,0.1,0.2c0.1,0,0.1,0.1,0.2,0.1
									c0.1,0,0.2,0,0.3-0.1s0.1-0.2,0.1-0.3c0-0.1,0-0.2-0.1-0.3c-0.1-0.1-0.2-0.1-0.3-0.1s-0.2,0-0.3,0.1
									C51.6,369.6,51.6,369.7,51.6,369.8z"/>
							</g>
						</g>
						<g id="text6823">
							<g>
								<path fill="#FFFFFF" d="M37.7,370l0.2,0c0,0.1,0.1,0.2,0.1,0.3s0.1,0.1,0.2,0.1c0.1,0,0.2,0,0.3-0.1s0.1-0.2,0.1-0.3
									c0-0.1,0-0.2-0.1-0.3c-0.1-0.1-0.2-0.1-0.3-0.1c-0.1,0-0.1,0-0.2,0.1c-0.1,0-0.1,0.1-0.1,0.1l-0.2,0l0.2-1h1v0.2h-0.8
									l-0.1,0.5c0.1-0.1,0.2-0.1,0.4-0.1c0.2,0,0.3,0.1,0.4,0.2s0.2,0.3,0.2,0.4c0,0.2-0.1,0.3-0.2,0.4c-0.1,0.2-0.3,0.2-0.5,0.2
									c-0.2,0-0.3,0-0.4-0.1S37.7,370.2,37.7,370z"/>
								<path fill="#FFFFFF" d="M39.8,370.5l-0.7-1.9h0.3l0.5,1.4c0,0.1,0.1,0.2,0.1,0.3c0-0.1,0.1-0.2,0.1-0.3l0.5-1.4h0.3
									l-0.7,1.9H39.8z"/>
							</g>
						</g>
						<g id="text6827">
							<g>
								<path fill="#FFFFFF" d="M31.1,369.8v-0.2l0.8,0v0.7c-0.1,0.1-0.3,0.2-0.4,0.2c-0.1,0-0.3,0.1-0.4,0.1c-0.2,0-0.4,0-0.5-0.1
									s-0.3-0.2-0.3-0.3c-0.1-0.2-0.1-0.3-0.1-0.5c0-0.2,0-0.4,0.1-0.5c0.1-0.2,0.2-0.3,0.3-0.4c0.1-0.1,0.3-0.1,0.5-0.1
									c0.1,0,0.3,0,0.4,0.1c0.1,0,0.2,0.1,0.3,0.2s0.1,0.2,0.1,0.3l-0.2,0.1c0-0.1-0.1-0.2-0.1-0.2c0-0.1-0.1-0.1-0.2-0.1
									c-0.1,0-0.2-0.1-0.3-0.1c-0.1,0-0.2,0-0.3,0.1c-0.1,0-0.2,0.1-0.2,0.1c-0.1,0.1-0.1,0.1-0.1,0.2c0,0.1-0.1,0.2-0.1,0.4
									c0,0.2,0,0.3,0.1,0.4c0.1,0.1,0.1,0.2,0.3,0.3s0.2,0.1,0.4,0.1c0.1,0,0.2,0,0.3-0.1c0.1,0,0.2-0.1,0.2-0.1v-0.4H31.1z"/>
								<path fill="#FFFFFF" d="M32.3,370.5v-1.9h0.3l1,1.5v-1.5h0.2v1.9h-0.3l-1-1.5v1.5H32.3z"/>
								<path fill="#FFFFFF" d="M34.2,370.5v-1.9h0.7c0.1,0,0.3,0,0.3,0c0.1,0,0.2,0.1,0.3,0.1c0.1,0.1,0.2,0.2,0.2,0.3
									c0.1,0.1,0.1,0.3,0.1,0.5c0,0.1,0,0.3-0.1,0.4c0,0.1-0.1,0.2-0.1,0.3c-0.1,0.1-0.1,0.1-0.2,0.2c-0.1,0-0.1,0.1-0.2,0.1
									c-0.1,0-0.2,0-0.3,0H34.2z M34.5,370.3h0.4c0.1,0,0.2,0,0.3,0s0.1-0.1,0.2-0.1c0.1-0.1,0.1-0.1,0.1-0.2
									c0-0.1,0.1-0.2,0.1-0.4c0-0.2,0-0.4-0.1-0.5c-0.1-0.1-0.1-0.2-0.2-0.2c-0.1,0-0.2,0-0.3,0h-0.4V370.3z"/>
							</g>
						</g>
						<g id="g6899">
							<path id="path6829" fill="#FFFFFF" d="M30.1,354.1h4v1.4h-2.6v8h4.3v1.4h-1.5v2h-4.2V354.1z"/>
							<path id="path6831" fill="#FFFFFF" d="M51.2,354.1h4v12.7h-4.3v-2h-1.5v-1.3h4.3v-8h-2.6V354.1z"/>
							<path id="path6833" fill="#FFFFFF" d="M53.8,363.4H31.5v-8h22.3V363.4z M35.8,360v-1.2h-1.3v1.2H35.8z M40.7,358.8h-1.3v1.2
								h1.3V358.8z M49.5,358.8v1.2h1.2v-1.2L49.5,358.8z M45.7,360v-1.2h-1.2v1.2H45.7z"/>
							<path id="path6835" fill="#FFFFFF" d="M51.2,354.1v1.4h-17v-1.4H51.2z"/>
							<path id="path6837" fill="#FFFFFF" d="M38.3,364.8h-2.4v-1.4h13.6v1.4H38.3z"/>
							<path id="path6839" fill="#DBDBDB" d="M38.3,366.9v-2.1H47v2.1H38.3z"/>
							<path id="path6841" fill="none" stroke="#000000" stroke-width="0.11" stroke-miterlimit="10" d="M34.1,354.1h-4"/>
							<path id="path6843" fill="none" stroke="#000000" stroke-width="0.11" stroke-miterlimit="10" d="M34.1,354.1v1.4"/>
							<path id="path6845" fill="none" stroke="#000000" stroke-width="0.11" stroke-miterlimit="10" d="M31.5,355.4h2.6"/>
							<path id="path6847" fill="none" stroke="#000000" stroke-width="0.11" stroke-miterlimit="10" d="M31.5,363.4v-8"/>
							<path id="path6849" fill="none" stroke="#000000" stroke-width="0.11" stroke-miterlimit="10" d="M35.9,363.4v1.4"/>
							<path id="path6851" fill="none" stroke="#000000" stroke-width="0.11" stroke-miterlimit="10" d="M34.4,364.8h1.5"/>
							<path id="path6853" fill="none" stroke="#000000" stroke-width="0.11" stroke-miterlimit="10" d="M51.2,354.1h-17"/>
							<path id="path6855" fill="none" stroke="#000000" stroke-width="0.11" stroke-miterlimit="10" d="M35.9,364.8h2.4"/>
							<path id="path6857" fill="none" stroke="#000000" stroke-width="0.11" stroke-miterlimit="10" d="M30.1,366.7h4.2"/>
							<path id="path6859" fill="none" stroke="#000000" stroke-width="0.11" stroke-miterlimit="10" d="M34.4,364.8v2"/>
							<path id="path6861" fill="none" stroke="#000000" stroke-width="0.11" stroke-miterlimit="10" d="M38.3,364.8v2.1"/>
							<path id="path6863" fill="none" stroke="#000000" stroke-width="0.11" stroke-miterlimit="10" d="M53.8,355.4v8"/>
							<path id="path6865" fill="none" stroke="#000000" stroke-width="0.11" stroke-miterlimit="10" d="M51.2,355.4h2.6"/>
							<path id="path6867" fill="none" stroke="#000000" stroke-width="0.11" stroke-miterlimit="10" d="M51.2,354.1v1.4"/>
							<path id="path6869" fill="none" stroke="#000000" stroke-width="0.11" stroke-miterlimit="10" d="M51.2,354.1h4"/>
							<path id="path6871" fill="none" stroke="#000000" stroke-width="0.11" stroke-miterlimit="10" d="M50.9,364.8h-1.5"/>
							<path id="path6873" fill="none" stroke="#000000" stroke-width="0.11" stroke-miterlimit="10" d="M49.4,364.8v-1.4"/>
							<path id="path6875" fill="none" stroke="#000000" stroke-width="0.11" stroke-miterlimit="10" d="M49.4,364.8H47"/>
							<path id="path6877" fill="none" stroke="#000000" stroke-width="0.11" stroke-miterlimit="10" d="M55.1,366.7h-4.2"/>
							<path id="path6879" fill="none" stroke="#000000" stroke-width="0.11" stroke-miterlimit="10" d="M50.9,364.8v2"/>
							<path id="path6881" fill="none" stroke="#000000" stroke-width="0.11" stroke-miterlimit="10" d="M47,364.8v2.1"/>
							<path id="path6883" fill="none" stroke="#000000" stroke-width="0.11" stroke-miterlimit="10" d="M30.1,366.7v-12.7"/>
							<path id="path6885" fill="none" stroke="#000000" stroke-width="0.11" stroke-miterlimit="10" d="M38.3,364.8H47"/>
							<path id="path6887" fill="none" stroke="#000000" stroke-width="0.11" stroke-miterlimit="10" d="M55.1,354.1v12.7"/>
							<path id="path6889" fill="none" stroke="#000000" stroke-width="0.11" stroke-miterlimit="10" d="M34.1,355.4h17"/>
							<path id="connetor_x5F_0" fill="#FFE500" stroke="#000000" stroke-width="0.11" stroke-linejoin="round" d="M35.8,360h-1.3
								v-1.2h1.3V360z"/>
							<path id="connector_x5F_1" fill="#FFE500" stroke="#000000" stroke-width="0.11" stroke-linejoin="round" d="M39.5,358.8h1.3
								v1.2h-1.3V358.8z"/>
							<path id="connector_x5F_2" fill="#FFE500" stroke="#000000" stroke-width="0.11" stroke-linejoin="round" d="M44.5,360v-1.2
								h1.2v1.2H44.5z"/>
							<path id="connector_x5F_3" fill="#FFE500" stroke="#000000" stroke-width="0.11" stroke-linejoin="round" d="M49.5,360v-1.2
								h1.2v1.2H49.5z"/>
						</g>
					</g>
				</g>
			</g>
		</g>
		<rect x="29" y="368" fill="#1A1A1A" width="26.1" height="2.4"/>
	</g>
</g>
<g>
</g>
<g>
</g>
<g>
</g>
<g>
</g>
<g>
</g>
</svg>
